<svg width="24" height="24" viewBox="0 0 24 24" fill="none" xmlns="http://www.w3.org/2000/svg">
<path d="M10.5899 13.41C10.9999 13.8 10.9999 14.44 10.5899 14.83C10.1999 15.22 9.55995 15.22 9.16995 14.83C7.21995 12.88 7.21995 9.71001 9.16995 7.76001L12.7099 4.22001C14.6599 2.27001 17.8299 2.27001 19.7799 4.22001C21.7299 6.17001 21.7299 9.34001 19.7799 11.29L18.2899 12.78C18.2999 11.96 18.1699 11.14 17.8899 10.36L18.3599 9.88001C19.5399 8.71001 19.5399 6.81001 18.3599 5.64001C17.1899 4.46001 15.2899 4.46001 14.1199 5.64001L10.5899 9.17001C9.40995 10.34 9.40995 12.24 10.5899 13.41ZM13.4099 9.17001C13.7999 8.78001 14.4399 8.78001 14.8299 9.17001C16.7799 11.12 16.7799 14.29 14.8299 16.24L11.2899 19.78C9.33995 21.73 6.16995 21.73 4.21995 19.78C2.26995 17.83 2.26995 14.66 4.21995 12.71L5.70995 11.22C5.69995 12.04 5.82995 12.86 6.10995 13.65L5.63995 14.12C4.45995 15.29 4.45995 17.19 5.63995 18.36C6.80995 19.54 8.70995 19.54 9.87995 18.36L13.4099 14.83C14.5899 13.66 14.5899 11.76 13.4099 10.59C12.9999 10.2 12.9999 9.56001 13.4099 9.17001Z" fill="#4F4F4F"/>
</svg>
