<svg width="351" height="356" viewBox="0 0 351 356" fill="none" xmlns="http://www.w3.org/2000/svg">
<path fill-rule="evenodd" clip-rule="evenodd" d="M156.854 95.3377C163.541 97.8932 169.793 98.5952 172.457 97.3889C179.137 94.3639 175.297 68.8254 168.117 59.7565C160.937 50.6876 132.339 51.2255 134.438 71.3323C135.166 78.3107 139.164 83.9482 144.354 88.2085L142.937 125.306L165.356 121.353L156.854 95.3377Z" fill="#B28B67"/>
<path fill-rule="evenodd" clip-rule="evenodd" d="M153.302 50.4573C150.262 50.497 142.248 51.5688 140.781 51.8277C139.843 51.9931 138.865 52.385 138.159 51.6277C137.58 51.0075 137.538 49.7936 137.259 49.0048C136.935 48.0884 136.547 47.1959 136.157 46.3062C135.046 43.7746 133.628 41.4297 131.848 39.3073C128.509 35.3253 124.149 32.5137 119.062 31.3273C113.445 30.0175 107.443 30.549 101.904 31.9923C95.9759 33.5368 90.8803 36.4686 85.53 39.3255C80.4315 42.0479 74.8875 43.7432 69.0766 43.8774C63.2219 44.0127 58.3727 41.7025 53.0501 39.6368C47.6011 37.522 41.6311 36.5631 35.8903 38.0378C30.5315 39.4145 25.9174 42.5258 21.95 46.2948C18.2381 49.8211 15.361 53.7836 14.2346 58.8451C13.0228 64.2897 14.0067 69.8581 18.261 73.7309C24.4275 79.3447 34.0443 79.3818 41.7691 77.8475C46.2373 76.9602 50.4988 75.3701 54.4725 73.1439C59.7718 70.1748 64.0622 65.9698 68.8669 62.3245C71.1217 60.614 73.5001 59.1162 76.0536 57.8892C78.5314 56.6982 81.0398 55.9101 83.6758 57.0583C86.4644 58.273 88.9884 59.5042 92.0274 60.0366C94.9428 60.5474 97.9432 60.5915 100.859 60.0543C106.531 59.0092 111.82 56.2637 117.129 54.1133C121.459 52.3599 126.103 50.5542 130.852 50.6685C132.834 50.7162 135.77 51.0186 136.809 52.8726C125.545 57.0186 123.496 72.1179 128.626 82.0324C131.395 87.3837 143.203 92.1279 146.815 88.4211C149.103 86.0727 147.075 83.877 145.757 82.4239C143.233 79.6412 141.85 75.7389 145.114 72.916C147.931 70.4812 152.027 74.3615 152.089 74.3456C152.942 74.1253 159.677 68.6072 163.747 61.5702C168.881 60.9735 169.065 57.5093 167.372 55.0013C165.678 52.4933 157.502 50.403 153.302 50.4573Z" fill="#191847"/>
<path fill-rule="evenodd" clip-rule="evenodd" d="M139.287 201.945C145.009 224.566 265.199 272.943 266.165 274.724C266.809 275.912 246.526 360.458 246.526 360.458L256.641 362.464C256.641 362.464 294.324 270.066 290.073 261.678C283.986 249.67 191.33 193.019 191.33 193.019L139.287 201.945Z" fill="#B28B67"/>
<path fill-rule="evenodd" clip-rule="evenodd" d="M246.933 348.196L263.379 351.091C289.493 308.614 296.924 276.055 291.872 261.024C286.82 245.994 193.444 192.453 193.444 192.453L138.188 202.196C149.432 254.937 256.746 276.594 258.487 278.618C260.229 280.643 250.922 305.124 246.933 348.196Z" fill="#2F3676"/>
<path fill-rule="evenodd" clip-rule="evenodd" d="M245.59 358.745C244.615 358.098 243.277 358.346 242.695 359.361C241.69 361.111 240.332 363.685 240.058 365.235C239.613 367.754 239.599 372.735 239.599 372.735C242.524 373.25 292.178 381.987 292.178 381.987C292.178 381.987 295.423 375.578 291.103 374.262C286.783 372.945 283.939 371.996 283.939 371.996L261.469 356.842C261.002 356.528 260.367 356.66 260.065 357.136L257.851 360.62C257.851 360.62 253.427 361.806 250.871 361.356C249.347 361.088 247.131 359.768 245.59 358.745Z" fill="#E4E4E4"/>
<path fill-rule="evenodd" clip-rule="evenodd" d="M151.738 199.749L123.895 323.941L93.7253 430.103L104.912 428.131L189.658 193.063L151.738 199.749Z" fill="#997659"/>
<path fill-rule="evenodd" clip-rule="evenodd" d="M94.4246 409.031L120.102 409.304C134.345 377.691 194.372 247.781 193.691 192.352L138.354 202.109C115.771 246.247 107.685 377.11 94.4246 409.031Z" fill="#5C63AB"/>
<path fill-rule="evenodd" clip-rule="evenodd" d="M260.679 141.168L229.562 161.949L242.769 173.866L264.613 150.017C276.823 145.471 282.323 142.445 281.115 140.94C280.096 139.671 278.648 139.844 277.314 140.004C276.274 140.129 275.304 140.245 274.661 139.665C273.191 138.339 275.311 133.068 277.537 128.152C279.763 123.237 276.98 123.891 275.427 124.706C270.465 128.743 265.549 134.23 260.679 141.168ZM113.651 190.508L93.9057 190.081C86.9884 226.507 82.5744 246.577 80.6636 250.293C79.2624 253.018 69.0993 261.193 62.0644 265.842C59.2407 267.708 60.3534 270.18 61.3962 270.849C67.9735 275.073 72.9098 272.316 78.2831 269.314C79.8386 268.445 81.4309 267.556 83.1101 266.81C87.4567 264.878 89.2527 266.974 90.9501 268.956C92.4529 270.71 93.8783 272.374 96.928 271.072C96.6732 270.473 96.372 269.804 96.0469 269.082C93.9458 264.416 90.8471 257.535 92.8218 252.871C93.8352 250.477 100.778 229.69 113.651 190.508Z" fill="#B28B67"/>
<path fill-rule="evenodd" clip-rule="evenodd" d="M152.23 106.11L160.037 103.308C180.573 117.246 194.943 156.9 207.583 160.255C219.534 163.427 234.321 155.711 251.757 145.738L259.706 157.487C246.023 178.791 212.719 200.624 196.555 194.363C170.712 184.352 156.424 134.84 152.23 106.11Z" fill="#DB2721"/>
<path fill-rule="evenodd" clip-rule="evenodd" d="M134.999 213.591C134.999 213.591 183.416 205.054 206.228 201.032C209.482 200.458 208.039 195.86 207.15 193.569C196.888 167.121 170.482 141.317 163.603 102.306L142.489 102.703C130.32 133.065 130.384 167.795 134.999 213.591Z" fill="#DDE3E9"/>
<path fill-rule="evenodd" clip-rule="evenodd" d="M141.398 102.895L141.163 102.936C100.093 139.496 80.0152 188.485 80.9283 249.901L96.3747 250.197C104.23 236.916 113.106 215.883 123.002 187.097C121.333 203.681 120.938 220.457 122.625 235.957L186.741 224.651C193.616 191.055 149.298 101.502 149.298 101.502L144.871 102.282L141.398 102.895Z" fill="#FF4133"/>
</svg>
