<svg width="796" height="1074" viewBox="0 0 796 1074" fill="none" xmlns="http://www.w3.org/2000/svg">
<path fill-rule="evenodd" clip-rule="evenodd" d="M525.436 256.058C533.948 272.819 544.88 285.179 552.192 287.491C570.527 293.289 608.074 236.432 610.085 206.024C612.096 175.616 555.483 126.439 524.123 169.58C513.239 184.553 511.082 202.638 513.673 220.112L445.516 290.418L496.123 322.04L525.436 256.058Z" fill="#B28B67"/>
<path fill-rule="evenodd" clip-rule="evenodd" d="M511.445 140.774C510.822 138.133 511.375 135.265 511.975 132.588C512.599 129.807 513.26 127.017 514.212 124.311C516.112 118.905 519.51 113.445 525.194 111.877C529.753 110.62 534.652 111.84 538.589 113.9C541.213 115.272 543.565 117.229 545.472 119.518C547.364 121.788 548.442 124.63 550.145 127.04C553.426 121.985 557.643 117.185 562.963 114.442C568.081 111.802 573.531 111.932 578.451 114.14C583.501 116.406 587.413 120.363 590.169 125.215C590.859 126.43 591.523 127.666 592.093 128.952C592.571 130.028 593.01 131.24 593.838 132.074C594.762 133.004 595.688 132.715 596.885 132.365C598.288 131.954 599.727 131.72 601.161 131.611C607.505 131.133 614.03 133.383 617.87 138.446C619.639 140.778 620.96 143.687 621.244 146.736C621.497 149.453 620.673 152.999 621.809 155.491C622.291 156.549 623.322 156.191 624.403 156.125C626.028 156.027 627.652 155.813 629.277 155.745C631.559 155.649 633.801 155.911 635.921 156.64C639.026 157.708 642.683 160.197 641.238 164.234C640.696 165.75 639.581 167.037 638.647 168.323C637.364 170.088 636.076 171.849 634.764 173.592C633.768 174.916 632.77 176.171 631.647 177.381C631.048 178.025 629.754 179.116 629.609 180.046C629.429 181.208 631.567 181.819 632.321 182.335C633.811 183.353 635.179 184.581 636.185 186.118C636.964 187.309 637.651 188.773 637.328 190.318C637.131 191.267 636.561 192.013 635.93 192.723C635.174 193.574 635.043 194.195 634.562 195.231C637.248 195.503 645.769 197.704 644.365 201.943C643.897 203.355 642.353 204.315 641.189 205.025C639.148 206.27 636.922 207.182 634.717 208.002C630.117 209.71 625.309 210.659 620.527 211.051C623.288 215.139 621.154 220.774 615.978 221.692C613.693 222.097 611.545 221.163 609.755 219.927C609.099 219.475 608.289 218.608 607.685 218.393C607.36 218.278 606.902 218.329 606.49 218.109C603.777 216.661 601.232 214.2 599.05 212.034C595.162 208.174 592.214 203.347 590.753 197.89C590.379 196.489 589.938 195.543 588.721 194.799C587.654 194.148 586.433 193.789 585.357 193.154C582.511 191.475 580.84 188.527 578.808 185.989C576.453 189.404 573.033 192.649 569.62 194.912C566.837 196.758 564.154 195.603 561.607 194.325C553.462 190.242 546.246 184.61 538.536 179.807C544.94 186.152 552.211 191.661 558.362 198.263C561.143 201.246 557.185 201.904 554.782 202.572C550.824 203.672 547.085 205.763 543.776 208.36C543.099 201.326 538.609 194.165 531.984 192.056C524.664 189.726 514.888 195.483 515.09 204.14C515.207 209.166 518.579 213.185 521.144 216.915C516.613 218.054 513.314 221.856 509.441 224.375C507.531 225.617 505.149 226.883 502.944 226.354C502.128 226.158 501.325 225.683 500.449 225.901C499.365 226.17 498.732 226.833 497.524 226.892C492.706 227.128 487.57 223.669 486.497 218.76C485.526 214.321 488.952 210.398 492.948 209.008C490.3 205.279 484.977 199.285 489.884 194.597C482.449 189.235 471.475 164.886 487.63 162.2C483.934 155.4 483.615 144.229 491.632 139.566C497.805 135.976 505.874 137.689 511.445 140.774" fill="#191847"/>
<path fill-rule="evenodd" clip-rule="evenodd" d="M244.221 723.306C244.221 723.306 333.701 748.32 398.622 748.32C463.544 748.32 519.227 709.798 519.227 709.798C519.227 709.798 431.662 684.123 375 684.123C318.338 684.123 244.221 723.306 244.221 723.306Z" fill="#1F28CF"/>
<path fill-rule="evenodd" clip-rule="evenodd" d="M450.263 772.357C449.688 771.493 449.202 770.553 448.817 769.535C440.843 748.459 313.124 521.091 300.4 479.522H444.194C453.868 511.127 497.411 709.466 503.539 749.038C522.874 811.458 562.682 1013.61 567.764 1027.62C573.11 1042.35 543.029 1057.7 535.014 1039.59C522.259 1010.77 491.87 931.024 478.339 882.334C465.653 836.687 455.324 795.621 450.263 772.357Z" fill="#997659"/>
<path fill-rule="evenodd" clip-rule="evenodd" d="M332.62 800.117C274.228 814.867 60.6455 841.533 45.9885 845.716C30.911 850.018 17.6909 818.956 36.3275 812.228C65.9814 801.522 147.691 776.785 197.233 766.69C237.08 758.57 273.442 751.945 297.854 748.065C295.786 679.527 286.332 515.047 292.529 479.522H419.76C413.818 513.588 363.586 762.151 354.25 787.031C351.287 795.914 342.447 799.839 332.62 800.117V800.117Z" fill="#B28B67"/>
<path fill-rule="evenodd" clip-rule="evenodd" d="M42.4295 807.129C42.741 806 42.0523 804.834 40.903 804.609C36.3522 803.717 25.6716 801.839 20.5395 802.743C13.9154 803.911 1.5963 808.356 1.5963 808.356C2.95126 816.036 25.9509 946.405 25.9509 946.405C25.9509 946.405 44.6993 948.649 44.0732 936.806C43.4471 924.962 43.2379 917.092 43.2379 917.092L60.9082 846.402C61.0449 845.855 60.703 845.304 60.1526 845.183L47.9217 842.494C47.9217 842.494 41.0179 832.644 39.8341 825.934C38.9297 820.808 41.2731 811.321 42.4295 807.129Z" fill="#E4E4E4"/>
<path fill-rule="evenodd" clip-rule="evenodd" d="M529.833 1033.12C528.776 1032.61 527.509 1033.09 527.088 1034.18C525.419 1038.51 521.713 1048.69 521.713 1053.9C521.713 1060.62 523.954 1073.52 523.954 1073.52C531.757 1073.52 664.207 1073.52 664.207 1073.52C664.207 1073.52 669.674 1055.46 657.895 1054.02C646.116 1052.58 638.325 1051.42 638.325 1051.42L571.74 1021.75C571.226 1021.52 570.624 1021.76 570.409 1022.28L565.636 1033.85C565.636 1033.85 554.732 1038.94 547.914 1038.94C542.705 1038.94 533.762 1034.98 529.833 1033.12Z" fill="#E4E4E4"/>
<path fill-rule="evenodd" clip-rule="evenodd" d="M292.94 479.522C292.94 479.522 377.04 455.474 452.087 479.522C469.493 558.898 511.789 590.402 519.227 712.099C434.68 754.086 330.24 682.154 243.207 723.1C218.34 665.827 253.153 527.898 292.94 479.522Z" fill="#2B44FF"/>
<path fill-rule="evenodd" clip-rule="evenodd" d="M613.227 621.533L572.161 532.275L535.869 561.64L588.689 628.103C595.455 661.644 601.036 677.156 605.432 674.64C609.139 672.519 609.283 668.69 609.416 665.163C609.519 662.415 609.616 659.851 611.384 658.42C615.422 655.153 628.207 662.819 640.027 670.613C651.848 678.407 651.295 670.918 649.822 666.554C641.401 652.023 629.202 637.016 613.227 621.533ZM190.507 566.046C202.589 554.872 277.274 429.444 277.274 429.444L325.635 448.226C325.635 448.226 225.184 575.831 218.207 583.32C209.143 593.048 210.613 612.802 211.609 626.196C211.763 628.268 211.906 630.188 211.997 631.895C203.299 632.368 201.274 626.984 199.14 621.308C196.729 614.897 194.179 608.113 181.714 608.974C176.898 609.307 172.168 610.071 167.548 610.817C151.587 613.393 136.925 615.76 124.481 599.438C122.509 596.85 121.981 589.756 130.628 587.69C152.17 582.541 184.601 571.508 190.507 566.046Z" fill="#B28B67"/>
<path fill-rule="evenodd" clip-rule="evenodd" d="M492.937 279.026L514.298 283.281C515.712 382.73 545.887 484.182 604.822 587.636L509.55 641.636C462.088 508.324 448.824 384.489 492.937 279.026Z" fill="#191847"/>
<path fill-rule="evenodd" clip-rule="evenodd" d="M308.882 497.372L487.345 565.878C487.345 565.878 483.216 391.262 523.68 285.85L472.926 257.164C404.496 308.974 360.387 388.171 308.882 497.372Z" fill="#DDE3E9"/>
<path fill-rule="evenodd" clip-rule="evenodd" d="M198.401 542.725C302.449 330.006 471.744 256.71 471.744 256.71L471.772 256.765C471.784 256.755 471.796 256.745 471.808 256.735L475.322 258.084C481.545 260.722 494.235 266.242 494.235 266.242L492.972 308.413C468.936 377.197 411.882 591.711 411.882 591.711L295.067 546.87C291.639 556.394 288.402 566.144 285.385 576.115L198.401 542.725Z" fill="#2F3676"/>
<path fill-rule="evenodd" clip-rule="evenodd" d="M294.737 547.791C309.597 506.291 328.076 469.061 347.584 436.439C334.844 479.144 322.338 531.615 327.28 560.284L294.737 547.791Z" fill="black" fill-opacity="0.1"/>
<path fill-rule="evenodd" clip-rule="evenodd" d="M348.167 485.858L416.148 481.181L405.852 508.001L348.167 485.858Z" fill="white" fill-opacity="0.2"/>
</svg>
