<svg width="1011" height="840" viewBox="0 0 1011 840" fill="none" xmlns="http://www.w3.org/2000/svg">
<g opacity="0.504511">
<path fill-rule="evenodd" clip-rule="evenodd" d="M936.077 571.632C948.632 651.694 644.15 703.916 382.075 667.472C120.001 631.027 -0.22691 488.709 124.831 412.876C249.888 337.042 923.522 491.57 936.077 571.632Z" fill="#F2F2F2"/>
</g>
<path fill-rule="evenodd" clip-rule="evenodd" d="M559.418 238.011C564.155 234.923 571.505 236.891 576.275 238.713C578.112 239.416 582.808 241.664 586.292 244.194C585.831 242.44 585.421 240.671 585.062 238.888C583.589 231.556 582.574 224.085 582.086 216.657C581.959 214.72 582.124 212.555 582.292 210.362L582.292 210.362C582.349 209.619 582.406 208.873 582.452 208.131C582.261 207.956 582.132 207.714 582.078 207.386C582.058 207.522 582.047 207.631 582.038 207.714C582.024 207.848 582.017 207.915 581.992 207.922C581.967 207.93 581.923 207.872 581.834 207.756C581.8 207.711 581.759 207.658 581.71 207.596C578.186 203.101 575.226 198.035 574.819 192.467C574.475 187.744 579.025 178.809 585.474 184.994C588.359 187.757 587.61 207.159 583.276 208.348C584.434 214.777 585.89 221.195 587.713 227.532C587.986 227.49 588.265 227.487 588.541 227.519C588.514 225.943 588.512 224.224 588.587 223.633C589.237 218.541 594.224 208.203 602.164 210.21C608.265 211.753 604.525 218.103 602.449 220.882C599.107 225.356 595.326 227.294 590.538 229.621C590.442 230.583 589.715 231.142 588.857 231.323C592.063 241.557 596.275 251.537 601.787 260.965L601.934 260.366L601.934 260.366C602.634 257.504 603.45 254.168 603.966 253.467C606.668 249.799 612.649 245.32 618.164 247.49C629.747 252.054 617.174 265.171 607.313 266.598C606.903 267.081 606.469 267.47 606.008 267.692C607.924 270.538 609.972 273.325 612.163 276.039C615.449 280.123 618.981 284.193 622.683 288.24C622.797 285.074 624.263 278.02 624.678 277.262C627.207 272.659 634.495 267.922 640.408 271.192C647.058 274.879 641.028 281.846 637.235 284.999C635.681 286.292 627.991 291.029 625.279 291.051C634.224 300.593 644.098 309.972 654.136 319.012C653.305 314.965 652.218 303.82 652.34 302.583C652.963 296.199 657.882 285.987 667.573 288.475C676.974 290.885 672.815 301.494 669.597 306.551C667.648 309.611 664.952 312.721 661.702 314.856C661.116 315.24 660.35 315.554 659.587 315.868C658.666 316.246 657.746 316.623 657.146 317.122C656.61 317.567 656.446 318.078 656.283 318.585C656.111 319.12 655.94 319.65 655.336 320.093C660.761 324.957 666.224 329.72 671.609 334.351C674.15 336.536 676.737 338.679 679.35 340.796C680.779 340.29 682.817 340.955 682.711 342.682C682.695 342.933 682.627 343.149 682.536 343.347C684.515 344.919 686.508 346.479 688.516 348.022C688.47 347.572 688.483 346.938 688.576 346.063C687.13 347.817 687.19 345.262 687.236 343.314L687.237 343.314C687.253 342.625 687.267 342.013 687.213 341.693C687 340.441 686.726 339.202 686.451 337.964C685.865 335.32 685.28 332.685 685.31 329.956C685.373 324.165 689.672 314.456 698.72 317.905C707.039 321.07 704.012 329.654 700.874 335.036C698.887 338.441 696.169 341.482 693.327 344.393C692.821 344.913 692.258 345.616 691.702 346.313C690.875 347.347 690.061 348.366 689.459 348.746C697.183 354.653 705.089 360.387 712.996 366.121L712.997 366.122C716.538 368.69 720.08 371.259 723.605 373.843C723.758 373.275 723.885 372.713 723.994 372.187C723.774 372.399 723.474 372.499 723.089 372.479C722.986 372.045 722.838 371.467 722.66 370.774L722.659 370.773C720.482 362.302 713.851 336.503 731.807 341.503C744.962 345.177 735.676 367.642 725.864 375.5C731.819 379.888 737.717 384.331 743.477 388.908C747.644 392.219 751.689 395.644 755.58 399.183C753.567 394.6 751.67 388.668 752.915 383.947C754.728 377.077 763.222 370.59 771.515 374.5C781.854 379.394 773.9 386.079 766.441 392.347C762.633 395.548 758.953 398.64 757.904 401.33C770.273 412.939 780.832 425.835 787.888 440.526C795.561 456.502 802.684 477.968 798.745 495.842C799.472 487.983 796.361 478.115 794.176 471.185L794.176 471.184C793.879 470.241 793.599 469.352 793.347 468.529C790.065 457.781 785.401 447.323 779.255 437.534C769.411 421.857 756.407 408.549 741.395 396.466C737.977 397.482 734.264 399.365 731.189 400.924C729.303 401.88 727.657 402.714 726.466 403.153C720.721 405.268 709.693 408.3 706.033 401.637C702.435 395.086 711.619 391.423 717.311 389.954C722.812 388.537 727.77 388.708 732.901 389.87C724.955 383.857 716.815 378.034 708.677 372.213L708.676 372.212C707.179 371.142 705.682 370.071 704.187 368.999C702.118 370.447 699.833 372.54 697.407 374.762C689.707 381.814 680.585 390.169 672.438 383.343C660.143 373.041 683.657 362.571 693.676 363.388C694.905 363.488 696.095 363.709 697.256 364.011C687.039 356.608 676.981 349.053 667.468 340.967C665.761 341.233 663.043 343.377 659.779 345.952C652.442 351.741 642.342 359.71 634.734 353.435C629.242 348.906 631.122 341.852 636.431 337.818C641.76 333.767 649.487 333.774 656.054 335.138C658.893 335.725 661.512 336.845 663.954 338.211C664.058 338.215 664.157 338.22 664.257 338.225C654.897 330.183 645.479 321.962 636.408 313.46C636.25 313.503 636.087 313.548 635.925 313.593C635.376 314.167 634.458 314.376 633.617 314.25C633.153 314.385 632.68 314.525 632.196 314.667C625.012 316.784 615.777 319.505 608.616 318.331C603.345 317.468 598.563 313.81 603.024 309.307C606.651 305.645 616.492 306.171 621.291 307.039C623.633 307.463 626.182 308.69 628.74 309.922C629.815 310.44 630.891 310.958 631.954 311.418C632.23 310.943 632.712 310.637 633.261 310.491C624.304 301.947 615.757 293.108 608.005 283.884C605.658 284.194 603.056 285.074 600.372 285.982C593.913 288.165 586.982 290.509 582.007 285.462C574.663 278.009 588.475 273.659 595.041 274.367C597.258 274.606 599.444 275.142 601.554 275.851C595.913 268.257 591.605 260.14 588.579 251.615C588.549 251.628 588.522 251.641 588.495 251.654C588.453 251.674 588.41 251.695 588.357 251.714C588.403 251.693 588.443 251.672 588.483 251.65L588.483 251.649C588.513 251.633 588.542 251.617 588.574 251.601C588.272 250.748 587.982 249.892 587.706 249.032C587.193 248.788 586.714 248.609 586.484 248.535C589.467 250.291 576.882 251.15 574.525 251.311C569.314 251.666 562.334 251.798 558.511 248.155C555.301 245.094 555.488 240.572 559.418 238.011ZM799.304 495.867C799.083 498.457 798.535 500.829 797.511 502.785C798.279 500.558 798.868 498.244 799.304 495.867Z" fill="#F2F2F2"/>
<path opacity="0.2" fill-rule="evenodd" clip-rule="evenodd" d="M322.833 72.5958C319.375 70.3648 314.008 71.7899 310.525 73.1092C309.183 73.618 305.753 75.2447 303.209 77.075C303.546 75.807 303.846 74.5279 304.109 73.2383C305.188 67.936 305.932 62.5333 306.292 57.1621C306.385 55.7614 306.265 54.1965 306.144 52.611L306.144 52.6104L306.144 52.6096C306.103 52.0726 306.061 51.5333 306.028 50.9972C306.167 50.8704 306.261 50.6955 306.301 50.4584C306.316 50.5567 306.324 50.6355 306.33 50.6957C306.34 50.792 306.346 50.8409 306.364 50.8461C306.382 50.8515 306.414 50.8101 306.479 50.7258C306.504 50.6935 306.534 50.6549 306.57 50.6103C309.145 47.3585 311.309 43.6948 311.608 39.6681C311.861 36.2531 308.543 29.7932 303.831 34.2681C301.724 36.2667 302.262 50.2958 305.426 51.1542C304.578 55.8033 303.512 60.4447 302.178 65.0273C301.979 64.9976 301.775 64.995 301.574 65.0183C301.594 63.8792 301.597 62.6361 301.542 62.2087C301.07 58.5268 297.433 51.0529 291.635 52.5068C287.179 53.6242 289.907 58.2145 291.422 60.2236C293.86 63.4581 296.62 64.8579 300.115 66.539C300.184 67.2343 300.715 67.6383 301.341 67.7694C298.996 75.1702 295.916 82.3885 291.888 89.2073L291.781 88.7737L291.781 88.7734C291.271 86.7045 290.677 84.2927 290.3 83.7862C288.329 81.1351 283.964 77.8979 279.936 79.4688C271.477 82.7725 280.651 92.2534 287.851 93.282C288.15 93.6313 288.466 93.9122 288.803 94.0732C287.403 96.1316 285.906 98.1472 284.305 100.111C281.904 103.065 279.324 106.009 276.619 108.936C276.537 106.647 275.47 101.547 275.167 100.999C273.323 97.6711 268.003 94.2486 263.685 96.615C258.828 99.283 263.227 104.319 265.995 106.598C267.13 107.532 272.742 110.955 274.723 110.97C268.187 117.872 260.974 124.657 253.64 131.197C254.249 128.271 255.047 120.211 254.959 119.317C254.507 114.701 250.92 107.318 243.843 109.121C236.977 110.866 240.01 118.536 242.357 122.192C243.779 124.404 245.746 126.652 248.118 128.194C248.546 128.472 249.104 128.699 249.662 128.926L249.662 128.926C250.334 129.199 251.005 129.471 251.444 129.832C251.835 130.154 251.954 130.523 252.073 130.889C252.198 131.276 252.323 131.66 252.764 131.98C248.801 135.499 244.81 138.944 240.876 142.294C239.02 143.875 237.13 145.426 235.222 146.957C234.178 146.592 232.69 147.073 232.767 148.322C232.778 148.503 232.827 148.66 232.894 148.803C231.448 149.94 229.993 151.069 228.526 152.185C228.559 151.86 228.55 151.402 228.483 150.769C229.538 152.037 229.495 150.189 229.462 148.78C229.45 148.283 229.44 147.84 229.48 147.609C229.636 146.703 229.837 145.807 230.038 144.912L230.038 144.912C230.467 143 230.895 141.094 230.875 139.121C230.831 134.933 227.696 127.914 221.089 130.411C215.013 132.702 217.219 138.909 219.508 142.799C220.957 145.261 222.941 147.459 225.014 149.563C225.384 149.938 225.794 150.447 226.2 150.951L226.201 150.951C226.804 151.698 227.398 152.435 227.837 152.709C222.195 156.983 216.42 161.131 210.644 165.28C208.057 167.139 205.47 168.997 202.895 170.867C202.783 170.457 202.691 170.05 202.611 169.67C202.772 169.824 202.991 169.895 203.272 169.881C203.347 169.567 203.456 169.149 203.586 168.648L203.586 168.647C205.18 162.522 210.033 143.864 196.92 147.485C187.313 150.146 194.084 166.387 201.244 172.066C196.895 175.241 192.587 178.456 188.379 181.767C185.335 184.163 182.38 186.64 179.537 189.201C181.009 185.886 182.397 181.596 181.49 178.183C180.169 173.216 173.97 168.528 167.913 171.357C160.363 174.9 166.167 179.731 171.61 184.261C174.389 186.574 177.075 188.809 177.839 190.754C168.804 199.152 161.088 208.481 155.93 219.106C150.321 230.66 145.11 246.185 147.979 259.108C147.451 253.426 149.727 246.289 151.325 241.277C151.543 240.595 151.748 239.952 151.932 239.357C154.333 231.584 157.743 224.02 162.235 216.94C169.429 205.601 178.929 195.973 189.896 187.231C192.391 187.965 195.101 189.325 197.346 190.452L197.346 190.452C198.722 191.143 199.924 191.745 200.793 192.062C204.986 193.59 213.038 195.778 215.712 190.96C218.342 186.222 211.638 183.575 207.483 182.515C203.468 181.493 199.847 181.618 196.1 182.459C201.904 178.109 207.85 173.896 213.795 169.684L213.796 169.683C214.889 168.909 215.982 168.134 217.075 167.359C218.585 168.405 220.252 169.917 222.022 171.523C227.641 176.621 234.298 182.659 240.25 177.721C249.231 170.268 232.067 162.704 224.752 163.298C223.854 163.371 222.985 163.531 222.138 163.749C229.6 158.393 236.948 152.927 243.896 147.077C245.143 147.269 247.126 148.818 249.509 150.68C254.863 154.863 262.234 160.622 267.792 156.083C271.804 152.806 270.434 147.705 266.56 144.79C262.67 141.863 257.028 141.87 252.233 142.859C250.16 143.284 248.247 144.095 246.464 145.083C246.388 145.086 246.315 145.09 246.242 145.093C253.08 139.276 259.96 133.328 266.587 127.177C266.702 127.208 266.821 127.24 266.94 127.273C267.34 127.688 268.01 127.839 268.624 127.747C268.797 127.797 268.972 127.848 269.149 127.9C269.318 127.949 269.489 127.998 269.661 128.049C274.906 129.577 281.648 131.542 286.877 130.691C290.726 130.065 294.219 127.418 290.963 124.164C288.317 121.517 281.131 121.901 277.627 122.529C275.917 122.836 274.055 123.725 272.187 124.617C271.402 124.991 270.616 125.367 269.839 125.699C269.638 125.356 269.286 125.135 268.886 125.029C275.43 118.848 281.674 112.454 287.338 105.782C289.051 106.006 290.951 106.641 292.91 107.296C297.625 108.873 302.685 110.566 306.319 106.914C311.685 101.523 301.602 98.3823 296.808 98.8962C295.189 99.0695 293.592 99.4581 292.051 99.971C296.173 94.4783 299.322 88.6076 301.536 82.4425C301.591 82.466 301.635 82.491 301.697 82.5141C301.664 82.4989 301.635 82.4829 301.606 82.4671C301.591 82.4591 301.576 82.4511 301.561 82.4432C301.554 82.4396 301.547 82.4359 301.539 82.4323C301.76 81.8155 301.972 81.1959 302.174 80.5742C302.549 80.3978 302.899 80.2679 303.066 80.2144C300.887 81.4849 310.076 82.1022 311.797 82.2178C315.601 82.4729 320.698 82.5666 323.491 79.9305C325.836 77.7163 325.701 74.4465 322.833 72.5958ZM147.409 258.598C147.577 260.324 148.077 261.899 149.06 263.19C148.338 261.715 147.797 260.178 147.409 258.598Z" fill="#C1DEE2"/>
<g opacity="0.7">
<path fill-rule="evenodd" clip-rule="evenodd" d="M696.527 377.097C715.179 376.272 738.247 385.553 740.237 402.838C741.682 415.396 741.234 427.919 743.471 440.459C745.26 450.48 749.044 460.101 754.203 469.23C759.165 478.009 769.457 485.481 772.134 494.859C773.84 500.835 772.885 509.241 770.532 515.086C767.671 522.192 769.192 521.631 774.893 527.594C786.065 539.28 796.125 551.263 803.239 565.22C813.486 585.323 820.205 608.821 816.401 630.826C815.917 633.62 815.344 643.648 810.83 644.349C805.789 645.133 808.146 639.398 808.415 637.545C810.131 625.724 811.655 615.392 809.586 603.386C801.602 557.065 762.623 526.546 737.242 487.232C735.847 485.205 732.901 480.377 730.853 477.192C727.62 472.164 724.369 462.596 719.992 458.868C711.749 451.844 719.327 465.965 720.934 468.66C722.965 472.07 725.199 475.694 727.28 478.682C736.803 492.533 747.432 507.651 757.267 521.929C714.732 530.191 684.776 486.597 673.362 457.937C663.957 434.324 652.705 379.117 696.527 377.097" fill="#69A1AC"/>
<path fill-rule="evenodd" clip-rule="evenodd" d="M946.522 333.247C915.341 335.356 895.324 352.896 886.006 377.429C880.983 390.65 880.408 404.232 877.617 417.819C873.419 438.261 864.385 453.752 846.732 468.315C841.264 472.825 837.234 477.456 834.37 482.411C828.683 487.357 823.734 492.955 820.097 499.799C815.452 508.539 814.137 519.025 819.501 527.739C820.943 530.082 824.54 534.784 828.269 536.921C814.31 562.265 806.635 590.022 807.5 617.743C808.023 634.477 808.981 651.218 810.099 667.932C810.4 672.42 812.114 679.83 814.689 672.304C817.046 665.42 814.09 654.613 813.817 647.421C812.486 612.386 811.349 580.53 828.266 547.797C830.04 544.366 831.921 540.963 833.88 537.587C833.995 537.53 834.102 537.462 834.21 537.395C834.285 537.444 834.352 537.497 834.427 537.545C834.552 537.355 834.724 537.128 834.924 536.875C835.485 536.381 835.976 535.757 836.442 535.06C837.943 533.287 839.641 531.204 839.65 530.064C839.65 530.055 839.645 530.041 839.645 530.033C850.118 515.458 862.113 501.687 874.365 488.186C874.274 488.284 887.656 472.751 885.586 481.341C884.589 485.481 874.746 493.364 870.77 497.749C861.976 507.504 851.649 519.864 843.067 531.816C841.913 532.382 840.281 535.16 839.101 537.228C838.45 538.277 837.842 539.334 837.244 540.254C867.652 548.819 891.306 531.567 907.435 511.501C907.455 511.478 907.472 511.453 907.49 511.429C912.399 505.885 917.427 500.379 923.708 495.996C934.188 488.683 945.411 487.393 957.767 483.793C991.463 473.978 1005.79 436.75 1010.34 409.126C1015.47 377.962 990.362 330.174 946.522 333.247" fill="#89C5CC"/>
<path fill-rule="evenodd" clip-rule="evenodd" d="M884.929 245.975C852.927 274.369 837.466 313.752 825.224 350.777C811.551 392.129 802.52 434.119 802.173 477.113C801.946 505.36 801.045 533.783 802.979 561.998C803.665 572.018 804.836 582.056 806.699 591.968C806.853 592.783 811.021 614.916 815.009 609.758C817.277 606.825 810.737 586.798 810.242 583.463C807.462 564.676 806.816 545.75 806.952 526.826C807.175 495.67 806.097 464.673 809.801 433.631C810.353 428.996 810.791 424.128 812.082 419.594C813.453 414.774 811.707 416.878 816.173 414.97C820.512 413.115 825.875 413.38 830.377 411.052C848.237 401.82 857.374 378.105 864.484 362.544C872.618 344.75 877.561 325.775 881.509 307.05C884.407 293.291 886.48 279.617 887.653 265.681C888.023 261.289 888.045 256.696 889.057 252.378C889.33 251.213 890.698 249.152 890.649 248.121C890.544 245.937 888.998 244.653 888.871 242.819C887.532 243.847 886.216 244.899 884.929 245.975" fill="#89C5CC"/>
<path fill-rule="evenodd" clip-rule="evenodd" d="M710.433 624.282C710.433 671.24 755.085 709.306 810.166 709.306C865.248 709.306 909.9 671.24 909.9 624.282" fill="#89C5CC"/>
<path fill-rule="evenodd" clip-rule="evenodd" d="M878.515 549.84C903.198 548.289 930.764 565.265 942.67 582.931C952.269 597.175 950.652 615.879 944.723 631.012C940.753 641.143 932.089 655.587 917.639 655.728C899.562 655.904 898.69 636.857 898.34 625.722C897.876 610.918 895.682 598.022 881.998 587.931C880.309 586.686 878.536 585.52 876.764 584.354C875.19 583.319 873.617 582.284 872.102 581.194C871.86 581.02 871.617 580.845 871.373 580.671C866.534 577.204 861.452 573.563 860.834 567.848C859.937 559.567 865.42 558.076 873.793 559.615C874.063 559.664 874.797 559.901 875.794 560.224C880.07 561.605 889.194 564.554 887.468 561.029C886.818 559.701 884.444 558.649 881.449 557.861C873.696 557.142 864.451 556.308 861.792 556.806C833.107 562.171 821.939 596.044 818.973 617.565C818.653 619.888 818.394 622.219 818.169 624.553H812.899C813.264 618.916 813.747 613.29 814.853 607.716C819.08 586.398 832.299 555.089 861.29 551.629C862.36 551.5 866.294 551.478 871.06 551.716C873.319 550.64 875.849 549.99 878.515 549.84Z" fill="#69A1AC"/>
</g>
<g opacity="0.5">
<path fill-rule="evenodd" clip-rule="evenodd" d="M273.548 221.812C279.289 214.833 289.943 197.109 298.024 194.615C303.229 193.009 301.711 209.624 301.775 212.792C302.026 225.049 300.626 237.228 298.897 249.383C295.783 271.303 285.6 290.824 271.634 309.48C264.447 319.08 256.017 328.796 244.341 334.786C238.967 337.544 232.5 338.006 227.193 340.383C221.012 343.149 224.378 340.913 221.592 346.404C217.724 354.028 216.486 363.863 214.697 371.998C206.478 409.341 186.582 606.747 190.031 644.732C190.337 648.099 184.83 648.904 184.555 644.794C183.094 623.001 195.738 472.081 202.117 422.726C208.496 373.371 214.952 329.768 221.424 312.693C229.277 291.977 243.458 267.065 255.264 247.746C260.747 238.771 266.724 230.105 273.548 221.812Z" fill="#69A1AC"/>
<path fill-rule="evenodd" clip-rule="evenodd" d="M316.162 463.876C331.101 454.526 347.272 472.173 333.753 481.525C326.28 486.694 318.467 484.855 314.068 480.547C311.213 483.514 308.54 486.617 305.972 489.237C298.148 497.223 290.754 505.399 283.686 513.765C269.005 531.146 256.424 549.509 243.269 567.536C230.287 585.328 217.408 603.21 205.641 621.453C195.673 636.909 182.387 655.091 178.974 672.035C184.152 636.1 203.801 601.559 227.199 569.879C250.406 538.46 277.04 504.146 312.974 479.35C309.317 474.765 309.215 468.221 316.162 463.876Z" fill="#C1DEE2"/>
<path fill-rule="evenodd" clip-rule="evenodd" d="M32.6705 376.236C41.0307 377.63 54.6912 393.752 61.5825 399.895C69.7723 407.195 77.2026 414.976 84.2064 423.128C99.2843 440.675 112.769 459.332 124.235 478.787C142.929 510.503 157.904 543.061 168.773 577.598C175.426 598.74 179.733 620.652 182.286 642.411C182.768 646.515 187.815 678.153 180.543 679.006C174.003 679.774 176.023 654.982 175.707 651.61C172.14 613.565 161.456 576.547 146.593 540.687C143.356 532.875 140.348 523.307 135.171 516.277C131.442 511.214 135.144 512.98 128.592 511.063C122.966 509.417 116.556 509.819 110.795 507.804C98.2795 503.429 88.2582 494.934 79.4739 486.39C62.4028 469.786 48.8749 451.822 41.8234 430.546C37.9117 418.748 34.317 406.883 32.3222 394.721C31.8062 391.577 27.2857 375.338 32.6705 376.236Z" fill="#69A1AC"/>
<path fill-rule="evenodd" clip-rule="evenodd" d="M65.662 107.987C97.1532 154.545 123.031 205.688 139.741 257.489C149.865 288.874 156.945 321.08 163.98 353.053C174.872 402.56 185.174 452.062 188.105 502.448C191.053 553.126 196.883 611.577 177.418 660.388C187.141 610.832 177.884 558.083 176.245 508.219C175.462 484.415 173.192 460.843 170.214 437.178C167.325 414.222 162.605 391.375 158.209 368.599C156.068 357.506 153.819 346.431 151.529 335.361C150.846 332.059 150.557 322.259 148.1 320.002C145.626 317.731 133.007 316.806 129.045 315.139C121.067 311.783 113.563 307.016 106.921 301.979C94.1892 292.322 83.1131 279.705 74.371 267.268C54.1439 238.489 46.0571 203.369 46.4659 170.04C46.5444 163.569 58.7518 93.8868 53.8491 92.9273C54.1443 92.6325 54.4235 92.3282 54.6868 92.0117C58.3985 97.3097 62.0408 102.644 65.662 107.987Z" fill="#89C5CC"/>
<path fill-rule="evenodd" clip-rule="evenodd" d="M405.556 275.904C406.042 275.307 409.204 271.151 407.612 271.417C410.854 270.876 403.152 276 411.231 272.856C407.395 275.944 409.609 279.956 409.66 284.113C409.744 290.862 408.419 297.555 406.928 304.159C404.572 314.597 401.062 324.747 395.968 334.456C384.865 355.615 366.011 375.984 343.628 389.212C332.578 395.743 321.749 397.967 309.147 400.973C301.187 402.873 300.555 406.383 296.33 412.968C287.533 426.684 278.893 440.35 271.135 454.528C261.872 471.458 252.879 488.407 244.397 505.636C215.82 563.668 192.562 623.791 180.347 686.012C180.048 649.345 189.998 611.582 202.548 576.632C211.691 551.169 223.592 526.623 236.287 502.325C239.363 496.439 244.024 488.867 245.331 482.368C246.245 477.815 243.449 473.436 242.169 468.64C237.177 449.961 237.534 429.034 241.918 410.255C246.751 389.548 260.727 379.937 284.371 377.004C293.018 375.931 304.008 376.325 311.937 373.182C320.576 369.759 324.139 358.508 329.051 351.286C342.245 331.887 357.921 313.282 375.921 296.936C380.905 292.409 386.265 288.234 391.951 284.363C395.537 281.921 403.112 278.912 405.556 275.904Z" fill="#89C5CC"/>
<path fill-rule="evenodd" clip-rule="evenodd" d="M133.535 652.264C133.007 649.207 135.36 646.412 138.462 646.412H226.318C229.42 646.412 231.773 649.207 231.244 652.264L224.045 693.88C222.387 703.468 214.068 710.47 204.338 710.47H160.442C150.711 710.47 142.393 703.468 140.734 693.88L133.535 652.264Z" fill="#C1DEE2"/>
</g>
<path fill-rule="evenodd" clip-rule="evenodd" d="M64.783 665.578C64.783 690.371 67.078 710.471 97.8834 710.471C128.689 710.471 130.984 690.371 130.984 665.578" fill="#F2F2F2"/>
<path fill-rule="evenodd" clip-rule="evenodd" d="M107.048 650.109C105.919 651.773 104.912 653.471 104.022 655.194C103.991 651.645 104.221 648.07 104.85 644.447C105.924 638.239 107.565 632.064 109.107 625.899C110.216 621.469 110.146 613.511 114.352 609.98C115.505 609.217 115.783 610.714 115.783 611.364C115.797 611.501 115.779 608.712 114.66 609.198C108.006 612.128 105.849 621.34 103.719 625.953C100.611 632.685 97.9661 639.568 96.8772 646.572C96.6019 648.342 96.4522 650.111 96.4176 651.877C96.1914 651.404 95.979 650.928 95.744 650.458C91.9033 642.779 86.7202 635.286 80.2558 628.375C78.6647 626.675 58.6574 609.898 57.0912 612.465C57.2458 612.838 57.5693 613.148 58.0627 613.394C58.0916 613.422 58.0924 613.406 58.0755 613.365C59.2506 614.983 62.5914 617.482 63.6321 618.9C66.251 622.468 68.2864 626.255 70.3548 629.969C74.725 637.818 78.779 645.746 82.7089 653.691C83.624 655.542 84.5778 657.382 85.5508 659.217C75.5202 646.883 62.1391 635.686 43.719 629.275C50.0103 632.004 54.1351 637.138 58.3838 641.068C63.5081 645.809 68.9053 650.423 74.0393 655.159C80.0949 660.745 87.22 666.628 93.0446 672.811C98.6864 682.908 104.169 693.017 107.553 703.632C106.166 699.964 107.445 694.896 107.207 691.047C107.019 687.984 106.599 684.945 106.023 681.912C106.735 683.28 107.348 684.649 107.626 685.923C107.372 683.787 107.08 681.665 106.766 679.554C107.572 677.577 108.363 675.733 108.897 674.213C111.636 666.42 114.897 658.76 119.338 651.295C123.448 644.389 128.162 637.572 133.298 630.962C135.694 627.88 138.123 624.81 140.537 621.734C142.117 619.721 143.621 616.497 145.82 614.568C131.602 625.65 116.068 636.812 107.048 650.109" fill="#F2F2F2"/>
<path fill-rule="evenodd" clip-rule="evenodd" d="M969.513 144.222C965.437 132.632 955.867 123.561 945.933 115.249C926.595 99.0677 916.194 89.0631 909.301 65.3931C905.248 51.4723 901.122 36.7204 888.266 26.6207C878.905 19.2658 862.794 13.0864 850.275 18.3531C831.015 28.1529 825.844 48.2638 827.786 66.2719C830.193 88.5916 842.423 102.354 865.917 110.575C879.155 115.205 887.955 121.314 895.142 131.959C900.89 140.472 904.241 151.131 911.465 158.848C922.264 170.383 935.778 175.511 952.435 173.595C936.833 149.123 918.604 124.421 896.617 103.816C894.559 101.745 882.42 93.8161 884.868 90.2858C887.565 86.3986 900.027 101 899.939 100.912C906.329 107.165 912.241 113.809 918.047 120.518C918.033 120.524 918.015 120.528 917.999 120.535C923.977 127.418 929.907 134.403 935.725 141.476C938.077 144.468 940.367 147.497 942.559 150.603C945.776 155.161 950.881 168.096 956.145 170.898C957.271 171.497 958.313 171.832 959.286 171.97C962.878 176.984 966.372 182.037 969.696 187.15C978.376 200.505 985.826 214.605 989.245 229.683C990.243 234.083 989.537 250.545 993.06 253.721C999.503 259.532 997.615 248.342 997.23 244.965C994.03 216.996 982.252 193.168 965.151 169.655C970.405 163.806 971.163 148.918 969.513 144.222" fill="#F2F2F2"/>
<path fill-rule="evenodd" clip-rule="evenodd" d="M748.865 157.736C755.656 150.914 771.983 149.757 781.968 150.213C794.324 150.778 807.015 153.342 818.77 156.443C838.134 161.55 856.95 170.869 874.004 179.89C876.06 180.977 901.38 193.958 899.139 196.236C896.918 198.493 872.062 183.073 866.522 180.416C854.701 174.743 843.86 168.034 830.829 164.288C817.337 160.408 803.068 158.872 788.88 158.978C787.059 158.992 781.12 157.91 780.992 160.206C780.866 162.452 790.694 161.28 792.427 161.294C799.585 161.35 806.787 161.924 813.843 162.982C827.063 164.963 839.492 168.954 850.815 175.075C847.655 181.338 840.082 184.225 832.137 182.658C825.27 181.303 818.576 177.962 811.852 176.996C807.221 176.331 802.585 176.726 798.094 177.838C786.249 180.773 779.418 186.785 766.394 182.603C756.185 179.325 739.111 167.547 748.865 157.736" fill="#F2F2F2"/>
<path fill-rule="evenodd" clip-rule="evenodd" d="M719.658 47.8126C704.577 46.875 687.736 57.1354 680.462 67.8129C674.598 76.4218 675.586 87.7264 679.208 96.8725C681.633 102.996 686.927 111.726 695.755 111.811C706.799 111.918 707.332 100.405 707.545 93.6753C707.829 84.7279 709.17 76.9335 717.529 70.8347C718.562 70.082 719.645 69.3773 720.728 68.6727C721.689 68.0472 722.65 67.4217 723.575 66.7629C723.723 66.6576 723.872 66.5522 724.021 66.4466C726.977 64.3512 730.082 62.1504 730.46 58.6966C731.008 53.6913 727.658 52.7905 722.543 53.7204C722.378 53.7504 721.929 53.8937 721.32 54.0886C718.708 54.9236 713.133 56.7055 714.188 54.5754C714.585 53.7728 716.035 53.1368 717.865 52.6603C722.602 52.2259 728.25 51.722 729.874 52.0231C747.399 55.2655 754.222 75.7382 756.034 88.7455C756.24 90.2184 756.404 91.6963 756.546 93.1765H759.759C759.534 89.7003 759.241 86.2298 758.552 82.7925C755.969 69.9083 747.893 50.9849 730.181 48.8936C729.527 48.8157 727.124 48.8026 724.212 48.9466C722.832 48.2963 721.286 47.9031 719.658 47.8126Z" fill="#F2F2F2"/>
<path fill-rule="evenodd" clip-rule="evenodd" d="M316.181 444.584C323.455 448.971 330.602 451.091 333.957 450.226C342.37 448.056 343.144 417.257 336.634 405.115C330.125 392.974 296.66 387.681 294.974 411.738C294.388 420.088 297.892 427.539 303.068 433.619L293.787 476.909H320.747L316.181 444.584Z" fill="#B28B67"/>
<path fill-rule="evenodd" clip-rule="evenodd" d="M339.18 410.567C338.913 408.993 338.26 407.246 337.733 405.757C337.054 403.837 336.027 402.106 334.896 400.475C332.767 397.404 330.214 394.631 327.394 392.33C322.244 388.126 315.688 385.701 309.241 386.488C305.986 386.886 302.826 388.129 300.136 390.197C297.707 392.065 295.369 394.816 292.223 395.013C288.799 395.228 285.661 392.204 282.915 390.337C279.819 388.231 276.526 386.697 272.908 386.101C266.846 385.102 261.152 387.151 256.975 392.128C252.529 397.424 249.298 405.19 252.217 412.207C252.76 413.511 253.458 414.611 254.46 415.522C255.378 416.358 256.782 417.247 257.154 418.583C257.55 420.002 256.368 421.833 255.91 423.114C255.253 424.949 254.714 426.876 254.905 428.87C255.22 432.146 257.277 435.273 259.45 437.426C261.66 439.616 264.38 440.873 267.286 441.452C269.226 441.839 271.209 442.052 273.181 441.907C274.16 441.835 275.024 441.563 275.972 441.346C276.895 441.136 277.41 441.381 278.193 441.887C281.828 444.239 285.736 445.149 289.934 444.799C293.476 444.504 297.559 443.645 300.449 441.216C303.659 438.518 303.595 434.798 302.84 430.824C303.64 431.221 305.853 431.466 304.53 429.885C304.006 429.258 303.016 429.003 302.344 428.635C301.561 428.206 300.766 427.651 300.158 426.952C297.704 424.126 300.183 418.376 303.268 417.428C307.852 416.02 308.878 422.507 312.15 424.185C314.032 425.15 316 423.831 317.409 422.485C319.298 420.681 320.584 418.291 321.695 415.86C322.611 413.857 323.462 411.826 324.395 409.834C324.831 408.903 326.339 406.273 325.581 405.22C328.864 404.565 332.521 405.931 335.349 407.721C336.517 408.461 337.408 409.277 338.032 410.584C338.165 410.864 338.456 411.696 338.821 411.73C339.501 411.794 339.247 410.963 339.18 410.567" fill="#191847"/>
<path fill-rule="evenodd" clip-rule="evenodd" d="M225.537 618.548C216.7 618.548 209.537 625.712 209.537 634.548V741.939C209.537 750.776 216.7 757.939 225.537 757.939H358.667C367.503 757.939 374.667 750.776 374.667 741.939V634.548C374.667 625.712 367.503 618.548 358.667 618.548H225.537ZM244.99 650.024C242.781 650.024 240.99 651.814 240.99 654.024V722.464C240.99 724.673 242.781 726.464 244.99 726.464H339.213C341.422 726.464 343.213 724.673 343.213 722.464V654.023C343.213 651.814 341.422 650.024 339.213 650.024H244.99Z" fill="#C5CFD6"/>
<path fill-rule="evenodd" clip-rule="evenodd" d="M486.055 752.319C463.908 725.254 448.922 705.19 441.099 692.126C427.703 669.757 416.739 649.853 413.279 642.249C405.028 624.118 432.273 615.628 438.439 624.085C447.772 636.885 467.703 677.163 498.233 744.919L486.055 752.319Z" fill="#B28B67"/>
<path fill-rule="evenodd" clip-rule="evenodd" d="M440.671 744.45L399.453 640.622C390.638 621.695 433.21 609.254 439.689 618.062C454.398 638.06 489.358 716.947 493.74 722.905L440.671 744.45Z" fill="#2F3676"/>
<path fill-rule="evenodd" clip-rule="evenodd" d="M330.894 723.625C338.923 711.905 368.126 672.476 384.032 656.162C388.603 651.474 393.063 646.974 397.281 642.781C409.82 630.318 434.792 651.269 422.276 662.621C391.108 690.892 345.631 729.056 341.831 732.459C336.506 737.228 325.848 730.991 330.894 723.625Z" fill="#B28B67"/>
<path fill-rule="evenodd" clip-rule="evenodd" d="M335.938 718.586C335.251 717.637 333.909 717.414 333.011 718.164C331.172 719.7 328.363 722.201 327.374 723.916C325.855 726.55 323.817 732.108 323.817 732.108C326.869 733.872 378.686 763.809 378.686 763.809C378.686 763.809 384.907 757.969 380.625 754.743C376.342 751.516 373.557 749.301 373.557 749.301L354.543 723.086C354.212 722.63 353.57 722.537 353.124 722.881L349.088 725.991C349.088 725.991 343.673 725.518 341.006 723.977C339.315 723 337.235 720.376 335.938 718.586Z" fill="#E4E4E4"/>
<path fill-rule="evenodd" clip-rule="evenodd" d="M479.397 746.909C478.328 746.431 477.054 746.908 476.651 748.008C475.826 750.258 474.643 753.829 474.643 755.81C474.643 758.85 475.656 764.684 475.656 764.684C479.181 764.684 539.014 764.684 539.014 764.684C539.014 764.684 541.483 756.513 536.162 755.862C530.842 755.211 527.322 754.686 527.322 754.686L497.758 741.497C497.244 741.267 496.641 741.508 496.426 742.029L494.485 746.741C494.485 746.741 489.559 749.041 486.48 749.041C484.527 749.041 481.415 747.81 479.397 746.909Z" fill="#E4E4E4"/>
<path fill-rule="evenodd" clip-rule="evenodd" d="M384.622 645.808C384.622 645.808 333.235 637.431 315.782 634.351C282.618 628.499 272.947 610.64 278.665 571.675L339.769 571.675C351.899 575.18 441.131 615.031 441.131 615.031C451.835 620.348 449.841 636.025 447.885 641.19C447.765 641.506 393.755 734.01 393.755 734.01L343.768 702.144L384.716 649.563C384.716 649.563 386.338 646.294 384.622 645.808Z" fill="#5C63AB"/>
<path fill-rule="evenodd" clip-rule="evenodd" d="M221.217 620.693C224.509 614.01 240.956 528 240.956 528L265.554 528.092C265.554 528.092 237.452 619.203 235.719 623.5C233.468 629.083 237.292 637.194 239.885 642.694C240.286 643.545 240.658 644.333 240.973 645.04C237.375 646.651 235.647 644.704 233.825 642.651C231.767 640.332 229.589 637.879 224.463 640.265C222.483 641.187 220.609 642.278 218.778 643.343C212.454 647.021 206.644 650.401 198.74 645.521C197.487 644.747 196.114 641.834 199.432 639.557C207.697 633.886 219.608 623.96 221.217 620.693ZM428.386 587.18L396.564 556.115L385.995 574.415L419.085 593.938C427.382 607.018 432.255 612.669 433.704 610.892C434.926 609.394 434.366 607.752 433.85 606.24C433.448 605.062 433.073 603.962 433.588 603.07C434.764 601.034 441.408 602.2 447.665 603.577C453.923 604.953 452.475 601.877 451.145 600.272C445.231 595.496 437.645 591.132 428.386 587.18Z" fill="#B28B67"/>
<path fill-rule="evenodd" clip-rule="evenodd" d="M315.911 458.172L325.624 456.505C340.926 510.633 419.547 547.529 424.373 567.764C426.143 575.184 420.806 578.936 423.563 581.196L410.937 590.445C408.799 587.949 404.237 592.515 394.708 589.321C385.18 586.127 315.911 522.265 315.911 458.172Z" fill="#DB2721"/>
<path fill-rule="evenodd" clip-rule="evenodd" d="M298.142 446.837C295.939 446.682 294.027 448.344 293.873 450.548L293.379 457.628C275.098 471.705 229.79 513.772 217.983 592.083C216.743 600.309 218.986 604.715 220.778 608.235C222.004 610.644 223.019 612.638 222.563 615.156L239.087 619.721C239.087 617.861 241.17 616.446 243.857 614.621C247.763 611.967 252.947 608.445 254.864 601.425C256.681 594.77 259.342 586.459 262.521 577.213C262.821 589.458 265.141 600.72 270.197 610.047C282.809 633.317 355.692 607.798 363.307 584.058C367.37 571.39 361.604 560.755 353.979 546.689C344.3 528.834 331.624 505.452 332.25 465.368L333.094 453.292C333.248 451.088 331.586 449.177 329.383 449.023L298.142 446.837Z" fill="#FF4133"/>
<path fill-rule="evenodd" clip-rule="evenodd" d="M632.823 373.65C625.538 378.041 618.38 380.162 615.02 379.296C606.594 377.125 605.82 346.302 612.339 334.151C618.858 321.999 652.372 316.703 654.061 340.779C654.647 349.134 651.139 356.592 645.955 362.676L655.25 406H628.25L632.823 373.65Z" fill="#B28B67"/>
<path fill-rule="evenodd" clip-rule="evenodd" d="M614.102 329.439C614.338 327.971 613.87 327.25 619.773 323.114C625.677 318.977 635.208 314.099 644.808 316.222C657.267 318.977 662.215 327.195 667.019 331.19C671.35 334.792 675.695 335.212 678.271 339.681C680.846 344.15 682.216 357.008 679.977 362.119C676.888 369.171 670.796 371.07 666.349 373.101C658.723 376.585 647.944 372.906 647.683 372.296C645.663 367.581 634.79 354.28 628.25 348.692C623.441 344.583 612.992 336.33 614.102 329.439Z" fill="#5C63AB"/>
<mask id="mask0" mask-type="alpha" maskUnits="userSpaceOnUse" x="614" y="315" width="68" height="60">
<path fill-rule="evenodd" clip-rule="evenodd" d="M614.102 329.439C614.338 327.971 613.87 327.25 619.773 323.114C625.677 318.977 635.208 314.099 644.808 316.222C657.267 318.977 662.215 327.195 667.019 331.19C671.35 334.792 675.695 335.212 678.271 339.681C680.846 344.15 682.216 357.008 679.977 362.119C676.888 369.171 670.796 371.07 666.349 373.101C658.723 376.585 647.944 372.906 647.683 372.296C645.663 367.581 634.79 354.28 628.25 348.692C623.441 344.583 612.992 336.33 614.102 329.439Z" fill="white"/>
</mask>
<g mask="url(#mask0)">
<path fill-rule="evenodd" clip-rule="evenodd" d="M651.162 363.501C664.073 347.578 667.111 328.375 667.111 328.375L671 330.835C671 330.835 666.217 351.82 651.162 363.501ZM646.25 372.25C667.144 353.891 672.127 333.26 672.127 333.26L676.625 334.586C676.625 334.586 670.426 357.657 646.25 372.25Z" fill="black" fill-opacity="0.2"/>
</g>
<path fill-rule="evenodd" clip-rule="evenodd" d="M673.213 501L630.941 639.467L610.464 757.223H594.408L616.046 501H673.213Z" fill="#997659"/>
<path fill-rule="evenodd" clip-rule="evenodd" d="M688.336 501C685.465 577.026 688.844 616.241 689.486 623.148C690.129 630.055 698.928 674.842 719.76 759.542L702.651 753.655C669.729 675.973 658.51 635.6 654.734 625.399C650.958 615.199 640.929 573.732 624.648 501H688.336Z" fill="#B28B67"/>
<path fill-rule="evenodd" clip-rule="evenodd" d="M716.761 752.204C717.831 751.725 719.106 752.203 719.509 753.303C720.334 755.556 721.517 759.132 721.517 761.115C721.517 764.159 720.504 770 720.504 770C716.979 770 657.146 770 657.146 770C657.146 770 654.676 761.819 659.997 761.167C665.318 760.515 668.838 759.989 668.838 759.989L698.401 746.784C698.916 746.554 699.519 746.795 699.734 747.317L701.675 752.035C701.675 752.035 706.601 754.338 709.68 754.338C711.632 754.338 714.743 753.106 716.761 752.204Z" fill="#E4E4E4"/>
<path fill-rule="evenodd" clip-rule="evenodd" d="M611.168 752.204C612.238 751.725 613.513 752.203 613.916 753.303C614.74 755.556 615.923 759.132 615.923 761.115C615.923 764.159 614.911 770 614.911 770C611.386 770 551.553 770 551.553 770C551.553 770 549.083 761.819 554.404 761.167C559.725 760.515 563.245 759.989 563.245 759.989L592.808 746.784C593.323 746.554 593.926 746.795 594.14 747.317L596.082 752.035C596.082 752.035 601.007 754.338 604.087 754.338C606.039 754.338 609.15 753.106 611.168 752.204Z" fill="#E4E4E4"/>
<path fill-rule="evenodd" clip-rule="evenodd" d="M678.83 501L660.857 571.547H605.959L614.145 501H678.83Z" fill="#69A1AC"/>
<path fill-rule="evenodd" clip-rule="evenodd" d="M688.94 501C697.811 527.642 692.31 571.547 692.31 571.547H636.289L620.885 501H688.94Z" fill="#89C5CC"/>
<path fill-rule="evenodd" clip-rule="evenodd" d="M518.054 388.841L562.059 395.56L553.798 415.004L518.255 400.331C502.801 401.573 495.347 401.082 495.894 398.857C496.356 396.981 498.006 396.44 499.525 395.942C500.709 395.555 501.814 395.193 502.217 394.245C503.136 392.082 498.201 387.48 493.331 383.313C488.461 379.145 491.792 378.451 493.876 378.547C501.257 380.396 509.316 383.827 518.054 388.841ZM544.359 500.395L576.235 469.352L586.815 487.633L553.672 507.145C545.359 520.214 540.478 525.861 539.027 524.086C537.804 522.59 538.365 520.949 538.882 519.438C539.285 518.261 539.661 517.162 539.145 516.272C537.968 514.238 531.315 515.404 525.048 516.781C518.781 518.158 520.232 515.084 521.564 513.48C527.488 508.708 535.086 504.346 544.359 500.395Z" fill="#B28B67"/>
<path fill-rule="evenodd" clip-rule="evenodd" d="M621.573 391.444C607.283 430.183 583.18 461.727 546.645 496.132L564.436 511.263C607.371 488.093 629.853 474.595 636.81 438.914C638.556 429.959 636.789 402.442 636.542 387.869L621.573 391.444Z" fill="#2026A2"/>
<path fill-rule="evenodd" clip-rule="evenodd" d="M692.538 503.848L606.756 515.904C606.756 515.904 623.432 423.073 619.416 389.916C619.279 388.789 621.081 386.516 622.037 386.646C632.529 388.073 643.336 381.483 643.336 381.483C668.261 411.274 680.942 450.482 692.538 503.848Z" fill="#F2F2F2"/>
<path fill-rule="evenodd" clip-rule="evenodd" d="M628.819 434.317C623.484 493.568 630.701 540.442 660.28 536.285L706.019 529.857C706.434 480.103 677.846 415.217 655.356 383.623C654.497 382.416 652.713 380.165 649.324 380.642L636.033 382.509C636.03 382.528 636.027 382.546 636.023 382.565C632.028 383.159 627.645 383.924 622.897 384.753C598.457 389.017 564.378 394.964 524.117 388.032L522.759 411.327C560.67 428.764 598.311 441.109 628.819 434.317Z" fill="#1F28CF"/>
</svg>
