<svg width="1148" height="840" viewBox="0 0 1148 840" fill="none" xmlns="http://www.w3.org/2000/svg">
<path fill-rule="evenodd" clip-rule="evenodd" d="M83.4803 605.501C108.777 507.697 364.75 563.414 532.564 533.178C700.377 502.942 898.914 362.125 1030.31 431.104C1161.7 500.083 1021.9 666.826 720.537 704.454C419.172 742.082 58.1835 703.305 83.4803 605.501Z" fill="#F2F2F2"/>
<g opacity="0.5">
<path fill-rule="evenodd" clip-rule="evenodd" d="M150.338 148.701C147.898 150.53 148.846 157.031 148.795 159.436C148.716 163.182 149.027 166.893 149.444 170.625C149.723 173.124 151.299 196.968 155.682 195.137C158.153 194.105 156.604 187.207 156.6 185.026C156.59 180.175 156.321 175.337 155.89 170.497C155.49 166.004 155.238 161.564 155.469 157.062C155.525 155.963 156.894 143.77 150.338 148.701" fill="#89C5CC"/>
<path fill-rule="evenodd" clip-rule="evenodd" d="M256.608 145.761C235.644 145.887 214.689 146.663 193.734 147.139C183.651 147.368 173.575 147.659 163.502 148.078C160.07 148.221 152.709 147.396 149.85 148.769C143.502 151.817 153.739 152.53 156.468 152.456C197.936 151.327 239.419 149.84 280.922 149.77C301.282 149.736 321.631 150.171 341.992 150.073C349.775 150.036 358.394 147.518 360.36 154.32C362.578 161.995 360.029 170.54 359.335 178.253C358.872 183.401 359.037 188.442 359.346 193.586C359.544 196.882 359.029 200.595 359.804 203.829C360.551 206.943 363.533 208.811 366.267 205.323C367.899 203.238 367.087 198.091 367.196 195.676C367.342 192.424 367.204 189.173 367.204 185.92C367.203 177.98 368.696 170.072 368.499 162.134C368.372 157.015 368.01 147.736 359.41 146.506C349.941 145.151 338.301 146.514 328.611 146.43C304.599 146.225 280.628 145.621 256.608 145.761" fill="#89C5CC"/>
<path fill-rule="evenodd" clip-rule="evenodd" d="M198.842 195.421C190.937 195.421 183.032 195.457 175.127 195.555C168.348 195.64 157.69 194.579 151.38 196.4C147.061 197.646 145.913 201.267 151.38 202.231C157.343 203.283 166.329 201.563 172.567 201.481C203.848 201.066 235.431 200.526 266.668 202.011C295.938 203.402 325.773 204.751 355.086 203.283C357.552 203.159 370.131 202.783 364.391 199.243C361.043 197.177 347.471 198.536 343.119 198.437C327.769 198.09 312.404 198.012 297.06 197.576C281.915 197.144 266.838 195.866 251.689 195.549C234.088 195.182 216.449 195.421 198.842 195.421" fill="#89C5CC"/>
<path fill-rule="evenodd" clip-rule="evenodd" d="M190.933 161.666C203.254 162.07 215.444 175.485 202.977 181.968C191.282 188.052 169.364 181.385 175.867 169.588C174.932 171.294 177.049 167.735 177.076 167.711C178.312 166.618 180.533 165.407 182.057 164.544C183.802 163.557 185.618 162.471 187.721 161.977C189.102 161.652 188.885 162.873 190.933 161.666M184.932 156.827C179.166 158.518 176.534 160.425 172.571 163.875C169.829 166.263 166.334 167.519 166.365 170.746C166.371 171.46 167.593 172.245 167.804 172.933C168.096 173.884 167.758 175.102 167.99 176.112C170.375 186.535 186.94 190.049 199.065 188.081C209.627 186.367 217.526 178.755 215.079 170.478C212.616 162.146 196.159 153.531 184.932 156.827" fill="#89C5CC"/>
<path fill-rule="evenodd" clip-rule="evenodd" d="M179.796 171.378C179.796 175.128 187.685 175.128 187.685 171.378C187.685 167.671 179.796 167.512 179.796 171.378" fill="#89C5CC"/>
<path fill-rule="evenodd" clip-rule="evenodd" d="M189.666 170.619C189.666 173.599 195.935 173.599 195.935 170.619C195.935 167.673 189.666 167.548 189.666 170.619" fill="#89C5CC"/>
<path fill-rule="evenodd" clip-rule="evenodd" d="M191.607 176.764C189.6 177.343 187.053 176.142 185.405 176.933C182.487 178.336 185.413 179.605 186.977 180.169C194.021 182.706 195.274 175.709 191.607 176.764" fill="#89C5CC"/>
<path fill-rule="evenodd" clip-rule="evenodd" d="M299.178 168.454C298.968 168.52 298.22 168.758 299.178 168.454ZM268.504 165.088C263.232 165.981 258.781 169.677 253.054 169.183C248.664 168.804 245.692 165.624 241.359 165.162C235.816 164.57 220.73 174.064 228.662 175.692C233.289 176.643 235.856 170.294 239.945 169.957C243.179 169.69 247.577 172.667 250.928 173.091C257.18 173.882 261.474 171.297 266.962 169.629C272.926 167.818 276.319 169.449 281.506 171.463C285.6 173.052 289.455 174.087 294.14 173.431C298.537 172.816 304.06 169.422 308.485 169.77C312.819 170.112 315.913 173.507 320.372 173.823C322.21 173.952 324.946 174.423 324.637 172.293C324.39 170.588 321.856 170.877 320.271 170.257C316.194 168.664 312.381 165.84 307.461 166.081C303.76 166.263 300.39 168.215 296.98 169.149C285.81 172.207 279.531 163.231 268.504 165.088" fill="#89C5CC"/>
<path fill-rule="evenodd" clip-rule="evenodd" d="M277.835 219.094C256.289 219.243 234.67 219.483 213.185 220.78C208.091 221.087 156.079 224.774 156.178 225.039C156.36 225.531 163.05 226.281 163.008 226.397C162.557 225.558 161.526 225.21 159.916 225.355C209.246 225.355 258.418 222.039 307.812 222.636C320.223 222.785 332.681 222.723 345.084 223.017C348.18 223.09 355.852 224.756 358.283 223.706C364.665 220.951 353.071 220.633 351.151 220.518C326.843 219.058 302.212 218.912 277.835 219.094" fill="#69A1AC"/>
<path fill-rule="evenodd" clip-rule="evenodd" d="M149.792 226.954C146.571 229.378 149.537 238.101 149.664 241.379C149.847 246.119 149.696 250.892 150.25 255.619C150.882 261.019 151.863 266.772 153.75 272.011C154.79 274.897 158.438 279.484 159.884 274.24C160.916 270.494 159.348 265.525 158.803 261.709C158.074 256.604 157.897 251.567 157.87 246.437C157.845 241.967 157.731 237.479 157.242 233.024C156.989 230.71 155.439 222.737 149.792 226.954" fill="#69A1AC"/>
<path fill-rule="evenodd" clip-rule="evenodd" d="M230.832 271.374C215.542 271.571 200.219 271.842 184.955 272.559C178.699 272.853 172.447 273.291 166.214 273.788C164.942 273.889 150.864 274.318 157.155 278.219C159.994 279.98 171.674 277.545 175.532 277.291C182.02 276.864 188.507 276.587 195.013 276.38C210.09 275.899 225.213 275.475 240.305 275.671C267.867 276.03 295.251 276.191 322.821 275.729C326.738 275.664 357.425 276.279 358.467 273.22C359.307 270.754 348.333 271.885 346.332 271.93C338.992 272.095 331.651 272.056 324.308 272.028C293.201 271.908 261.914 270.98 230.832 271.374" fill="#69A1AC"/>
<path fill-rule="evenodd" clip-rule="evenodd" d="M353.272 222.863C353.757 233.083 356.076 243.292 356.817 253.543C357.155 258.23 357.555 262.912 357.86 267.6C357.959 269.112 357.147 272.755 359.529 273.625C362.796 274.818 363.236 272.414 363.848 270.788C365.614 266.091 364.419 259.99 364.259 255.165C364.104 250.493 364.093 245.813 363.634 241.149C363.164 236.385 361.886 231.71 361.293 226.963C361.043 224.955 361.919 221.613 359.08 220.367C356.626 219.29 353.166 220.647 353.272 222.863" fill="#69A1AC"/>
<path fill-rule="evenodd" clip-rule="evenodd" d="M202.986 239.864C203.044 239.898 203.102 239.932 203.16 239.966C203.102 239.932 203.044 239.898 202.986 239.864M189.992 236.836C194.838 237.875 198.817 237.488 203.446 240.136C207.282 242.332 211.218 245.544 212.491 249.094C215.431 257.297 205.463 261.792 196.118 261.881C186.547 261.971 172.379 260.304 172.869 251.093C173.245 244.016 180.128 237.111 189.992 236.836M190.334 232.201C177.769 232.67 167.634 243.264 167.743 252.18C167.874 262.987 184.185 265.772 195.771 265.847C208.848 265.931 221.887 259.152 218.383 248.112C215.576 239.266 202.416 231.729 190.334 232.201" fill="#69A1AC"/>
<path fill-rule="evenodd" clip-rule="evenodd" d="M177.695 246.711C177.695 249.724 184.037 249.724 184.037 246.711C184.037 243.732 177.695 243.604 177.695 246.711" fill="#69A1AC"/>
<path fill-rule="evenodd" clip-rule="evenodd" d="M190.998 245.388C190.998 248.426 197.39 248.426 197.39 245.388C197.39 242.386 190.998 242.257 190.998 245.388" fill="#69A1AC"/>
<path fill-rule="evenodd" clip-rule="evenodd" d="M183.664 252.262C179.536 255.356 194.038 260.78 197.458 256.476C200.267 252.941 194.151 254.113 191.983 253.922C189.627 253.713 185.587 250.822 183.664 252.262" fill="#69A1AC"/>
<path fill-rule="evenodd" clip-rule="evenodd" d="M299.604 245.451C299.206 245.576 299.206 245.576 299.604 245.451ZM245.148 240.414C240.968 241.002 227.251 244.476 227.066 248.199C226.728 254.966 240.161 248.035 243.078 247.145C251.003 244.727 255.167 249.659 263.127 249.919C270.041 250.146 276.398 245.703 282.911 246.229C289.735 246.779 293.017 252.229 300.895 249.335C305.062 247.805 304.957 245.445 300.279 245.222C297.451 245.088 295.508 245.965 292.56 245.052C287.95 243.624 286.093 241.3 280.576 241.669C276.413 241.947 272.65 243.709 268.586 244.391C259.281 245.952 254.119 239.152 245.148 240.414" fill="#69A1AC"/>
<path fill-rule="evenodd" clip-rule="evenodd" d="M331.706 248.389C331.419 248.479 331.419 248.479 331.706 248.389ZM332.761 245.571C332.807 245.586 333.122 245.914 332.761 245.571ZM327.969 243.42C327.789 243.524 327.789 243.524 327.969 243.42ZM328.074 243.394C329.003 243.811 336.473 247.646 331.047 248.549C328.293 249.007 326.014 244.847 328.074 243.394M325.601 239.145C313.635 243.241 326.511 257.899 335.902 251.944C339.853 249.438 340.373 244.372 336.529 241.762C334.226 240.197 328.727 238.073 325.601 239.145" fill="#69A1AC"/>
<path fill-rule="evenodd" clip-rule="evenodd" d="M213.275 296.908C198.344 296.911 183.281 296.676 168.37 297.34C165.861 297.452 156.302 297.094 155.009 299.063C152.643 302.665 162.479 300.877 163.908 300.769C193.598 298.538 224.611 299.822 254.399 300.458C278.76 300.978 302.992 301.3 327.325 302.243C333.721 302.491 340.111 302.765 346.503 303.054C348.586 303.148 353.828 304.185 354.268 301.687C354.674 299.375 348.134 299.897 346.5 299.832C333.508 299.319 320.525 298.781 307.536 298.232C276.273 296.909 244.588 296.904 213.275 296.908" fill="#89C5CC"/>
<path fill-rule="evenodd" clip-rule="evenodd" d="M154.529 300.913C151.74 302.995 153.048 310.942 152.97 313.57C152.834 318.164 152.545 322.755 152.415 327.348C152.281 332.149 152.468 336.972 152.846 341.765C153.004 343.778 155.205 353.506 158.669 347.939C160.217 345.451 158.632 338.522 158.656 335.703C158.698 330.573 159.066 325.465 159.406 320.342C159.699 315.938 159.709 311.53 159.966 307.125C160.047 305.721 160.268 296.592 154.529 300.913" fill="#89C5CC"/>
<path fill-rule="evenodd" clip-rule="evenodd" d="M356.78 341.952C342.249 343.07 327.485 342.542 312.899 343.368C300.328 344.079 287.768 344.37 275.165 344.571C246.626 345.023 218.038 345.464 189.582 347.25C183.096 347.656 176.619 348.088 170.116 348.306C166.864 348.415 153.218 347.304 152.202 349.878C150.471 354.261 165.064 352.527 168.212 352.458C175.134 352.308 182.023 351.932 188.926 351.537C217.941 349.878 247.067 349.382 276.145 348.692C291.959 348.317 307.663 347.448 323.442 346.658C331.306 346.264 339.193 346.251 347.057 345.87C349.114 345.77 356.398 345.967 357.878 344.724C358.895 343.87 359.152 341.786 356.78 341.952" fill="#89C5CC"/>
<path fill-rule="evenodd" clip-rule="evenodd" d="M351.854 301.659C352.353 312.121 353.14 322.574 353.61 333.036C353.752 336.182 352.486 341.821 354.819 344.595C358.571 349.056 361.5 344.335 362.187 341.555C364.356 332.781 362.024 323.089 361.419 314.261C361.188 310.894 362.581 303.398 360.413 300.384C358.348 297.512 351.669 297.801 351.854 301.659" fill="#89C5CC"/>
<path fill-rule="evenodd" clip-rule="evenodd" d="M327.459 316.559C333.026 317.692 333.839 326.779 327.557 327.451C318.207 328.451 322.296 318.433 327.459 316.559M325.899 312.946C324.201 312.906 320.281 312.555 319.234 313.592C318.359 314.461 319.244 316.293 319.142 317.12C318.773 320.076 315.572 321.783 317.003 325.274C317.975 327.643 320.576 329.869 323.747 330.692C340.479 335.033 340.275 310.762 325.899 312.946" fill="#89C5CC"/>
<path fill-rule="evenodd" clip-rule="evenodd" d="M174.84 314.576C174.799 314.616 174.757 314.656 174.716 314.696C174.757 314.656 174.799 314.616 174.84 314.576M187.981 309.327C187.916 308.907 187.85 308.486 187.785 308.066C196.857 311.281 204.075 317.261 201.063 325.288C198.765 331.412 190.461 333.584 182.724 332.072C174.16 330.398 170.068 325.099 172.377 318.591C173.442 315.589 176.714 311.554 180.942 310.589C182.911 310.139 187.264 311.285 187.981 309.327M182.677 306.785C180.382 306.901 178.148 307.619 176.276 308.6C178.029 307.487 180.365 306.824 182.677 306.785M182.742 302.829C177.074 302.959 173.359 305.536 169.997 308.63C168.942 309.601 165.374 312.176 165.816 313.485C166.165 314.519 167.079 316.032 169.004 314.879C158.924 329.962 184.964 342.826 200.861 332.338C215.698 322.549 200.978 302.37 182.742 302.829" fill="#89C5CC"/>
<path fill-rule="evenodd" clip-rule="evenodd" d="M177.592 316.84C177.592 318.849 181.745 318.849 181.745 316.84C181.745 314.832 177.592 314.832 177.592 316.84" fill="#89C5CC"/>
<path fill-rule="evenodd" clip-rule="evenodd" d="M184.679 317.183C184.679 319.224 188.899 319.224 188.899 317.183C188.899 315.142 184.679 315.142 184.679 317.183" fill="#89C5CC"/>
<path fill-rule="evenodd" clip-rule="evenodd" d="M187.895 324.352C185.921 324.472 178.695 323.968 177.426 325.267C175.307 327.436 178.69 327.511 180.351 327.746C181.848 327.957 188.354 327.838 189.271 326.84C190.081 325.958 189.892 324.224 187.895 324.352" fill="#89C5CC"/>
<path fill-rule="evenodd" clip-rule="evenodd" d="M274.963 318.725C274.624 318.831 274.624 318.831 274.963 318.725ZM247.658 317.226C243.209 317.472 239.441 319.393 235.188 320.159C230.648 320.978 228.684 319.473 224.556 318.487C220.261 317.463 217.207 317.867 213.755 320.069C211.8 321.317 207.509 324.188 208.731 326.405C211.53 331.478 217.866 323.224 220.846 322.84C225.494 322.242 229.63 325.293 234.99 324.42C239.848 323.63 244.158 321.126 249.231 321.099C253.474 321.076 257.472 322.819 261.66 323.24C268.054 323.885 272.253 322.18 278.163 320.915C283.289 319.818 286.883 321.264 291.704 322.481C293.907 323.037 301.259 325.059 299.905 321.393C299.523 320.357 289.834 318.506 288.333 318.149C283.036 316.893 279.682 317.383 274.636 318.827C270.428 320.032 266.889 320.619 262.377 319.956C257.406 319.225 252.886 316.928 247.658 317.226" fill="#89C5CC"/>
</g>
<g opacity="0.5">
<path fill-rule="evenodd" clip-rule="evenodd" d="M452.335 149.096C453.053 137.5 454.04 125.92 454.561 114.316C454.818 108.567 455.02 102.816 455.215 97.0652C455.259 95.7847 455.303 94.5046 455.341 93.2241C455.468 88.8736 454.781 88.5177 460.612 88.1315C486.627 86.4076 512.745 85.8361 538.791 84.2763C570.203 82.3952 601.78 81.0963 633.281 80.5141C647.28 80.2548 661.338 79.718 675.338 80.0447C678.441 80.1171 684.53 79.5111 685.751 81.3215C686.279 82.1035 685.172 84.7948 685.031 85.6973C684.592 88.5166 684.183 91.3456 683.93 94.179C682.441 110.889 683.329 128.021 687.639 144.478C677.528 140.198 664.754 136.516 652.97 137.247C640.956 137.992 631.969 143.203 622.353 148C616.913 150.713 615.081 151.426 609.654 148.798C604.978 146.533 600.553 143.943 596.141 141.402C589.332 137.479 582.907 133.226 576.304 129.113C564.164 121.552 547.438 110.79 530.671 113.958C518.692 116.222 507.63 121.165 497.233 126.003C481.785 133.19 467.802 141.991 452.335 149.096M660.532 74.8949C600.847 74.8949 541.609 79.2389 482.092 81.5888C475.876 81.834 469.681 82.1954 463.487 82.6442C459.359 82.9434 449.265 81.6871 446.559 84.3352C444.755 86.1019 446.305 86.3671 446.559 88.0457C446.88 90.1612 446.69 92.6678 446.607 94.907C446.408 100.303 446.2 105.698 446.036 111.094C445.42 131.488 445.035 151.878 446.135 172.266C446.374 176.713 448.533 182.869 447.352 187.19C446.498 190.318 443.64 192.222 450.23 192.8C456.714 193.369 464.644 191.922 471.134 191.458C477.662 190.992 484.189 190.486 490.725 190.081C519.142 188.323 547.834 188.589 576.325 188.005C605.073 187.415 633.831 187.378 662.588 187.366C674.621 187.361 688.37 187.868 700.11 185.382C704.241 184.507 704.909 184.076 703.891 181C703.697 180.416 702.45 180.2 702.084 179.145C701.586 177.709 701.842 175.963 701.725 174.468C701.345 169.586 701.213 164.695 700.906 159.809C700.395 151.646 698.521 143.724 697.135 135.643C695.535 126.311 695.617 116.835 695.584 107.442C695.566 102.232 695.744 97.0388 696.301 91.8431C696.659 88.5107 698.844 83.5353 697.736 80.4276C697.184 78.8803 696.28 77.6532 694.135 76.9872C692.776 76.5649 691.633 76.8954 690.29 76.7885C688.697 76.6616 687.702 76.4936 685.793 76.169C677.614 74.7772 668.867 74.8949 660.532 74.8949" fill="#69A1AC"/>
<path fill-rule="evenodd" clip-rule="evenodd" d="M627.502 97.0811C627.497 100.329 626.822 105.121 628.816 108.179C631.346 112.058 634.51 110.845 635.349 107.2C635.829 105.112 635.817 98.9309 634.923 97.0811C633.659 94.4627 627.502 92.6793 627.502 97.0811" fill="#89C5CC"/>
<path fill-rule="evenodd" clip-rule="evenodd" d="M634.759 98.3351C630.698 98.4426 618.872 97.7108 616.124 100.162C611.411 104.367 619.616 105.112 623.138 104.876C627.215 104.604 639.813 105.268 642.543 102.814C647.11 98.7083 637.952 98.2476 634.759 98.3351" fill="#89C5CC"/>
<path fill-rule="evenodd" clip-rule="evenodd" d="M477.169 206.828C495.022 209.156 489.468 229.592 472.575 224.859C466.689 223.209 458.016 218.444 461.269 212.828C463.699 208.633 471.62 206.428 477.169 206.828M469.778 200.474C458.167 201.941 450.229 211.374 454.21 219.603C458.05 227.541 472.617 233.354 483.359 230.501C493.614 227.777 498.73 217.533 495.273 210.04C491.66 202.21 479.892 199.195 469.778 200.474" fill="#89C5CC"/>
<path fill-rule="evenodd" clip-rule="evenodd" d="M578.369 209.218C573.925 209.495 570.083 211.832 565.61 212.245C561.428 212.632 557.963 211.558 554.047 210.699C549.314 209.661 544.973 209.205 540.136 210.127C536.44 210.832 532.794 212.72 528.955 212.948C521.4 213.396 512.619 206.924 506.721 214.244C503.894 217.753 507.999 220.013 512.229 218.376C516.638 216.671 514.473 216.06 519.943 217.068C524.506 217.908 528.194 218.364 532.765 217.187C536.906 216.12 540.541 214.169 545.041 213.95C549.448 213.735 553.281 215.242 557.493 215.893C562.673 216.692 567.257 216.087 572.165 214.868C576.833 213.708 578.696 213.074 583.407 214.109C586.39 214.764 592.906 216.845 595.809 215.168C600.83 212.269 594.109 211.845 591.462 211.432C587.201 210.77 582.791 208.946 578.369 209.218" fill="#89C5CC"/>
<path fill-rule="evenodd" clip-rule="evenodd" d="M680.087 207.271C680.123 207.291 680.158 207.312 680.193 207.332C680.158 207.312 680.122 207.291 680.087 207.271M675.724 206.585C682.213 206.899 689.23 215.774 680.632 216.089C674.58 216.311 667.809 208.539 675.724 206.585M674.814 199.323C654.294 203.625 663.674 225.344 683.467 222.835C692.456 221.695 695.503 213.876 692.531 208.088C691.255 205.602 688.766 203.506 685.792 202.075C683.598 201.02 677.321 198.799 674.814 199.323" fill="#89C5CC"/>
<path fill-rule="evenodd" clip-rule="evenodd" d="M579.082 244.664C597.138 244.199 615.195 243.734 633.27 243.608C643.066 243.54 652.808 243.668 662.59 244.09C666.928 244.276 671.264 244.457 675.605 244.595C676.353 244.618 677.388 244.58 678.53 244.538C681.217 244.439 684.498 244.318 686.041 244.93C694.676 248.36 677.085 248.736 674.946 248.709C670.157 248.648 665.373 248.471 660.589 248.293C656.408 248.138 652.226 247.983 648.041 247.906C621.192 247.411 594.179 248.316 567.284 249.218C561.119 249.425 554.96 249.631 548.81 249.82C542.281 250.022 535.754 250.152 529.227 250.282L529.227 250.282C519.896 250.468 510.567 250.654 501.237 251.048C497.674 251.198 494.112 251.357 490.55 251.516L490.55 251.516C485.447 251.744 480.344 251.972 475.239 252.174C471.243 252.332 467.245 252.486 463.243 252.561C462.523 252.575 461.584 252.65 460.559 252.732H460.559C458.078 252.931 455.093 253.17 453.481 252.675C451.54 252.08 449.972 251.247 451.038 249.482C451.94 247.99 455.218 248.169 457.609 248.299C458.261 248.335 458.847 248.367 459.301 248.36C466.94 248.249 474.561 247.927 482.186 247.576C484.976 247.448 487.764 247.317 490.552 247.185C505.068 246.499 519.57 245.814 534.123 245.628C549.115 245.436 564.098 245.05 579.082 244.664ZM673.386 333.884C675.117 333.869 676.847 333.853 678.578 333.837C681.259 334.012 682.457 336.125 680.737 337.748C679.419 338.992 674.347 339.048 671.041 339.085H671.041H671.041C670.125 339.095 669.345 339.104 668.817 339.136C660.187 339.656 651.573 339.891 642.917 339.953C624.689 340.083 606.529 340.67 588.33 341.449C569.701 342.246 551.056 342.546 532.41 342.846H532.41H532.41L532.409 342.846H532.409C518.691 343.067 504.973 343.287 491.261 343.706C483.408 343.946 475.555 344.125 467.698 344.28C466.854 344.296 465.731 344.387 464.461 344.49L464.461 344.49C459.498 344.893 452.287 345.477 450.653 342.518C449.203 339.892 451.219 338.684 454.166 338.134C453.701 336.579 453.787 334.394 453.836 333.142C453.851 332.766 453.862 332.474 453.855 332.309C453.78 330.739 453.729 329.169 453.677 327.6C453.619 325.821 453.56 324.042 453.469 322.264C453.386 320.651 453.309 319.035 453.232 317.419C452.928 311.045 452.623 304.656 451.97 298.308C451.669 295.378 451.19 292.482 450.713 289.591C449.95 284.976 449.19 280.372 449.155 275.66C449.148 274.813 449.092 273.753 449.028 272.557C448.702 266.439 448.186 256.768 453.244 253.822C462.163 249.915 460.4 261.193 459.613 266.226C459.483 267.057 459.38 267.718 459.356 268.112C458.843 276.481 459.538 284.481 460.66 292.798C461.418 298.414 460.975 304.012 460.532 309.618C460.374 311.621 460.216 313.625 460.112 315.631C460.061 316.623 460.015 317.615 459.969 318.607C459.829 321.66 459.689 324.709 459.382 327.758C459.349 328.088 459.338 328.721 459.324 329.529C459.284 331.809 459.22 335.487 458.57 337.719C459.954 337.674 461.297 337.686 462.406 337.695H462.407C463.114 337.7 463.726 337.705 464.193 337.695C466.322 337.646 468.45 337.6 470.579 337.553L470.582 337.553C476.871 337.414 483.159 337.276 489.446 337.099C504.29 336.68 519.138 336.54 533.986 336.4H533.986C551.523 336.234 569.06 336.069 586.589 335.444C615.478 334.413 644.467 334.148 673.386 333.884ZM678.745 252.066C678.731 266.402 680.207 280.345 681.932 294.624C682.999 303.456 683.855 312.322 684.535 321.176C684.567 321.586 684.562 322.27 684.556 323.128V323.128C684.522 328.024 684.447 338.574 690.892 336.051C695.759 334.145 693.889 323.095 692.854 316.981C692.627 315.64 692.44 314.536 692.373 313.819C692.232 312.29 692.092 310.761 691.952 309.233L691.952 309.23C691.304 302.132 690.657 295.041 689.804 287.951C689.744 287.453 689.684 286.955 689.624 286.457C688.637 278.268 687.65 270.085 687.475 261.858C687.461 261.178 687.548 260.23 687.646 259.159C687.931 256.062 688.311 251.938 686.597 250.293C684.186 247.979 678.751 248.663 678.745 252.066Z" fill="#69A1AC"/>
<path fill-rule="evenodd" clip-rule="evenodd" d="M579.907 287.211C602.97 279.377 626.303 271.452 650.285 265.809C652.019 265.402 653.115 266.744 652.721 267.87C652.316 269.03 648.564 270.02 646.076 270.677C645.332 270.873 644.7 271.04 644.306 271.172C640.955 272.295 637.597 273.405 634.238 274.514C630.799 275.65 627.36 276.786 623.929 277.937C616.797 280.33 609.657 282.712 602.518 285.094C594.872 287.645 587.226 290.196 579.589 292.76C579.299 292.857 579.01 292.954 578.72 293.052C589.105 295.823 599.431 298.717 609.712 301.699C613.225 302.718 616.726 303.758 620.228 304.798C622.209 305.387 624.19 305.975 626.173 306.56C626.819 306.75 627.943 307.008 629.294 307.318C633.697 308.327 640.508 309.889 641.012 311.466C641.831 314.035 632.428 311.55 628.88 310.612C628.409 310.487 628.042 310.39 627.815 310.336C622.579 309.08 617.407 307.68 612.237 306.281L611.522 306.087C607.424 304.979 603.333 303.859 599.241 302.739C591.249 300.551 583.258 298.363 575.223 296.264C574.087 295.967 572.95 295.671 571.812 295.377C558.917 299.725 546.048 304.115 533.221 308.575C526.343 310.967 519.502 313.414 512.679 315.894C511.19 316.435 509.347 317.272 507.344 318.181C502.542 320.359 496.827 322.953 492.896 322.888C490.788 322.853 489.368 322.514 489.147 320.595C488.921 318.616 492.304 317.578 494.736 316.831C495.318 316.652 495.846 316.49 496.257 316.336C503.548 313.599 510.885 310.93 518.243 308.295C532.856 303.062 547.606 298.038 562.409 293.114C562.494 293.086 562.579 293.057 562.665 293.029C554.455 290.943 546.223 288.907 537.972 286.914C537.148 286.715 535.459 286.363 533.239 285.902C522.751 283.721 500.408 279.075 501.403 276.361C502.543 273.257 523.49 278.931 532.764 281.443C534.502 281.913 535.83 282.273 536.541 282.443C547.628 285.096 558.685 287.824 569.684 290.676C573.087 289.528 576.494 288.37 579.907 287.211Z" fill="#89C5CC"/>
<path fill-rule="evenodd" clip-rule="evenodd" d="M481.086 355.391C487.837 356.279 492.599 361.141 491.858 366.233C490.857 373.113 481.724 376.266 473.287 375.368C463.713 374.35 461.7 368.274 466.338 362.428C467.365 361.134 468.546 359.586 470.413 358.904C471.696 358.436 473.331 358.85 474.364 358.472C477.988 357.149 475.809 355.039 481.086 355.391M478.012 350.897C469.774 351.687 454.553 358.844 455.324 366.004C455.992 366.834 456.998 367.174 458.34 367.023C458.017 368.574 458.122 370.109 458.656 371.627C459.438 373.598 460.999 375.213 463.091 376.497C467.399 379.14 473.288 379.788 478.652 379.325C488.669 378.46 496.563 373.321 497.126 365.499C497.675 357.864 488.798 349.874 478.012 350.897" fill="#89C5CC"/>
<path fill-rule="evenodd" clip-rule="evenodd" d="M517.912 360.214C514.216 361.685 508.368 363.944 506.201 366.737C503.911 369.687 506.282 372.915 511.107 371.519C514.937 370.412 517.373 366.891 521.458 365.763C525.064 364.768 526.517 365.275 530.327 366.266C534.254 367.288 537.686 368.275 541.93 368.024C547.265 367.709 551.885 365.387 557.107 364.859C561.503 364.414 565.129 365.698 569.34 366.209C574.225 366.802 577.419 365.414 581.989 364.691C585.098 364.199 590.578 366.2 592.845 365.451C597.944 363.768 592.55 361.711 589.728 361.031C584.973 359.886 582.047 360.896 577.524 361.846C572.614 362.877 570.493 362.102 565.8 361.155C556.304 359.239 548.968 363.871 539.967 363.029C531.633 362.249 526.647 356.742 517.912 360.214" fill="#89C5CC"/>
<path fill-rule="evenodd" clip-rule="evenodd" d="M673.186 356.792C682.326 363.225 672.058 372.379 661.98 367.237C658.433 365.427 658.376 362.52 661.137 359.92C663.661 357.541 669.209 356.614 673.186 356.792V356.792ZM669.798 351.593C661.258 352.84 653.203 355.782 652.43 363.181C651.676 370.4 661.539 373.753 669.825 373.28C688.428 372.216 687.083 349.084 669.798 351.593V351.593Z" fill="#89C5CC"/>
</g>
<path opacity="0.5" fill-rule="evenodd" clip-rule="evenodd" d="M872.075 111.818C865.245 111.918 848.377 113.783 845.87 119.849C843.966 124.454 849.62 123.443 852.651 121.767C856.751 119.502 860.346 118.145 865.425 117.456C884.776 114.828 903.369 124.252 922.535 125.443C929.794 125.895 938.556 126.189 945.487 124.424C950.423 123.167 951.067 120.426 945.434 120.009C940.648 119.654 935.351 120.772 930.444 120.74C910.139 120.61 892.09 111.532 872.075 111.818" fill="#C1DEE2"/>
<g opacity="0.5">
<path fill-rule="evenodd" clip-rule="evenodd" d="M154.373 399.915C141.304 400.026 128.242 400.388 115.199 401.007C102.795 401.597 89.3373 401.15 77.1357 402.955C73.6711 403.467 68.9908 405.838 73.5977 408.445C76.8358 410.278 88.6827 408.17 92.5495 407.991C106.789 407.334 121.036 406.547 135.297 406.169C148.796 405.811 162.295 405.684 175.802 405.583C177.864 405.568 181.287 405.072 183.34 405.521C186.291 406.167 185.591 406.343 185.812 409.155C186.212 414.249 186.101 419.362 185.967 424.461C185.837 429.396 185.594 434.33 185.617 439.267C185.634 442.789 184.134 449.788 186.488 452.846C189.877 457.249 193.392 452.467 193.645 449.541C194.13 443.946 193.913 438.281 193.915 432.678C193.916 427.419 193.967 422.16 193.72 416.903C193.541 413.106 194.264 406.477 191.539 403.025C188.764 399.51 182.083 400.268 177.208 400.1C169.603 399.838 161.985 399.856 154.373 399.915" fill="#89C5CC"/>
<path fill-rule="evenodd" clip-rule="evenodd" d="M71.2219 406.262C71.2363 416.143 69.7136 425.959 69.2871 435.829C69.0915 440.367 68.6945 445.35 70.2236 449.805C71.7671 454.303 76.6696 455.278 77.2342 450.256C78.3778 440.088 78.0973 429.544 78.9878 419.294C79.3021 415.675 81.3477 409.042 79.438 405.654C77.7564 402.669 71.2147 402.096 71.2219 406.262" fill="#89C5CC"/>
<path fill-rule="evenodd" clip-rule="evenodd" d="M193.773 449.818C171.077 452.074 147.35 451.252 124.492 451.606C113.525 451.776 102.561 451.787 91.5927 451.873C87.7648 451.903 78.044 450.81 74.7325 452.425C69.4611 454.997 75.1806 456.982 78.6705 457.038C100.315 457.394 122.201 456.647 143.841 456.114C153.564 455.875 163.319 455.757 173.016 455.137C178.986 454.755 185.509 454.385 191.307 453.181C192.541 452.923 195.231 452.977 195.508 451.712C195.678 450.93 195.369 449.653 193.773 449.818" fill="#89C5CC"/>
<path fill-rule="evenodd" clip-rule="evenodd" d="M99.3954 464.182C93.0875 464.21 74.0789 462.01 71.4665 466.628C67.9839 472.787 81.57 471.349 85.2238 471.279C93.5226 471.119 101.816 471.102 110.117 471.105C118.262 471.107 126.406 471.068 134.549 470.922C136.908 470.88 142.4 471.615 143.757 469.482C144.789 467.861 143.974 466.582 142.071 465.724C137.494 463.659 125.602 464.856 120.243 464.671C113.304 464.431 106.343 464.182 99.3954 464.182" fill="#89C5CC"/>
<path fill-rule="evenodd" clip-rule="evenodd" d="M176.135 465.322C172.53 465.483 165.239 464.368 162.009 465.606C158.339 467.014 159.632 469.219 162.801 470.187C164.995 470.858 173.998 470.506 176.135 469.729C178.364 468.919 180.883 465.103 176.135 465.322" fill="#89C5CC"/>
<path fill-rule="evenodd" clip-rule="evenodd" d="M215.658 407.231C211.807 408.024 212.976 424.435 212.876 427.036C212.604 434.164 211.537 443.129 214.692 449.993C216.703 454.369 220.567 453.776 219.909 449.169C219.331 445.125 218.339 441.128 217.91 437.058C216.939 427.848 215.617 418.025 216.534 408.808C216.925 409.344 220.577 414.311 221.437 413.941C221.177 414.056 217.224 406.921 215.658 407.231" fill="#89C5CC"/>
<path fill-rule="evenodd" clip-rule="evenodd" d="M258.967 401.187C251.175 401.274 243.384 401.377 235.594 401.539C229.4 401.669 219.668 400.905 213.988 402.861C207.225 405.19 210.434 410.379 216.786 410.488C222.406 410.586 228.398 409.634 234.069 409.488C249.386 409.094 264.73 409.011 280.054 408.912C293.912 408.823 308.36 409.932 322.097 408.37C324.135 421.953 318.624 435.594 320.498 449.334C320.789 451.467 320.659 454.48 324.276 454.966C328.841 455.579 329.029 452.184 329.202 449.754C329.696 442.813 329.429 435.867 330.105 428.917C330.733 422.476 331.968 415.894 330.924 409.443C329.641 401.505 324.574 402.142 315.618 401.812C296.702 401.115 277.904 400.979 258.967 401.187" fill="#89C5CC"/>
<path fill-rule="evenodd" clip-rule="evenodd" d="M232.854 449.421C228.884 449.496 222.29 448.578 219.746 451.436C217.099 454.41 220.239 457.004 224.088 457.614C228.644 458.336 234.584 457.346 239.312 457.335C244.237 457.325 249.162 457.366 254.086 457.38C275.197 457.442 296.399 457.682 317.495 457.027C320.441 456.935 328.802 457.677 330.841 455.556C332.651 453.674 331.385 451.986 329.002 451.027C325.092 449.455 317.062 450.053 312.713 449.928C307.342 449.774 301.965 449.724 296.591 449.661C275.382 449.416 254.062 449.027 232.854 449.421" fill="#89C5CC"/>
<path fill-rule="evenodd" clip-rule="evenodd" d="M250.712 463.169C242.812 463.27 234.383 463.01 226.561 463.909C219.684 464.7 218.837 469.692 226.24 470.276C233.044 470.813 241.292 469.809 248.129 469.48C250.557 469.363 253.381 469.529 254.545 467.514C255.76 465.408 253.437 463.389 250.712 463.169" fill="#89C5CC"/>
<path fill-rule="evenodd" clip-rule="evenodd" d="M310.438 463.693C306.221 463.772 293.905 462.411 291.816 466.027C288.339 472.047 305.013 469.759 308.212 469.671C312.243 469.56 327.955 471.327 327.959 466.508C327.962 461.784 314.299 463.621 310.438 463.693" fill="#89C5CC"/>
<path fill-rule="evenodd" clip-rule="evenodd" d="M70.54 493.607C70.5501 504.558 69.6424 515.612 70.973 526.535C71.5232 531.053 71.429 539.708 74.9146 543.538C77.3888 546.257 80.8204 546.066 82.1719 542.802C83.0753 540.619 81.6303 536.255 81.4692 533.92C81.3138 531.68 81.1326 529.44 80.9945 527.199C80.6399 521.425 80.6679 515.66 80.7736 509.883C80.8643 504.928 82.4531 498.372 80.9549 493.607C79.5581 489.166 70.54 488.127 70.54 493.607" fill="#69A1AC"/>
<path fill-rule="evenodd" clip-rule="evenodd" d="M217.138 483.973C191.83 484.449 166.466 484.023 141.182 484.964C128.712 485.428 116.291 486.446 103.884 487.461C97.788 487.961 91.6959 488.475 85.6109 489.038C83.7746 489.208 68.5163 489.652 74.2552 494.008C76.7611 495.911 84.7356 493.923 87.891 493.643C94.0004 493.102 100.122 492.629 106.24 492.144C117.882 491.219 129.538 490.343 141.23 489.858C168.765 488.712 196.414 489.056 223.977 488.292C231.433 488.086 238.866 487.938 246.325 488.158C248.284 488.216 262.676 488.765 256.427 484.775C253.472 482.887 242.332 483.861 238.639 483.804C231.472 483.693 224.301 483.838 217.138 483.973" fill="#69A1AC"/>
<path fill-rule="evenodd" clip-rule="evenodd" d="M251.637 502.423C251.512 497.363 251.387 492.303 251.08 487.248C250.757 481.924 260.417 481.118 263.282 485.427C265.344 488.53 264.981 493.809 264.671 498.333C264.545 500.157 264.428 501.857 264.482 503.244C264.605 506.422 264.917 509.708 265.232 513.037C266.026 521.416 266.846 530.071 264.76 537.98C263.746 541.824 259.427 543.844 256.553 541.749C256.549 541.753 256.545 541.758 256.541 541.762C255.46 542.958 252.094 542.956 249.616 542.954C248.933 542.953 248.318 542.952 247.836 542.977C241.045 543.323 234.381 543.908 227.65 544.666C214.241 546.175 200.947 547.102 187.392 547.354C178.195 547.525 168.984 547.582 159.772 547.64C142.13 547.75 124.48 547.86 106.895 548.765C100.966 549.071 95.1269 549.595 89.2951 550.433C88.7987 550.505 88.2474 550.597 87.6606 550.695C83.3244 551.419 77.0471 552.467 76.6182 547.917C76.1084 542.517 91.6965 541.81 99.7182 541.446C100.943 541.391 101.991 541.343 102.779 541.288C127.136 539.587 151.875 539.85 176.336 540.111C177.521 540.124 178.706 540.136 179.889 540.149C181.798 540.168 183.707 540.192 185.615 540.216C196.088 540.345 206.548 540.474 217.018 539.994C221.782 539.775 226.609 539.662 231.444 539.55C239.159 539.37 246.896 539.19 254.441 538.576C253.303 535.264 253.104 531.355 252.917 527.671C252.844 526.236 252.773 524.836 252.648 523.518C251.985 516.496 251.811 509.46 251.637 502.423Z" fill="#69A1AC"/>
<path fill-rule="evenodd" clip-rule="evenodd" d="M272.119 491.148C268.7 491.497 265.849 493.694 267.375 496.48C269.297 499.988 275.023 498.618 278.806 498.396C290.829 497.688 303.382 499.101 315.26 498.035C318.504 497.744 323.21 496.418 320.298 493.145C318.109 490.686 310.132 491.117 306.741 490.882C295.145 490.076 283.701 490.291 272.119 491.148" fill="#C1DEE2"/>
<path fill-rule="evenodd" clip-rule="evenodd" d="M292.412 506.454C287.749 506.689 276.894 506.504 274.929 510.487C271.405 517.633 285.21 515.115 289.414 514.708C294.297 514.236 305.808 515.501 308.408 511.945C313.057 505.588 296.501 506.242 292.412 506.454" fill="#C1DEE2"/>
<path fill-rule="evenodd" clip-rule="evenodd" d="M280.421 522.135C278.209 523.797 278.206 526.763 280.421 528.425C283.133 530.459 289.043 530.037 292.607 530.185C297.577 530.394 311.854 532.367 314.322 527.973C317.653 522.044 304.725 522.168 300.472 521.832C295.558 521.443 284.494 519.075 280.421 522.135" fill="#C1DEE2"/>
<path fill-rule="evenodd" clip-rule="evenodd" d="M106.17 420.644C106.17 427.018 119.431 427.018 119.431 420.644C119.431 414.304 106.17 414.207 106.17 420.644" fill="#89C5CC"/>
<path fill-rule="evenodd" clip-rule="evenodd" d="M131.324 420.716C131.324 428.004 146.428 427.989 146.428 420.716C146.428 413.454 131.324 413.38 131.324 420.716" fill="#89C5CC"/>
<path fill-rule="evenodd" clip-rule="evenodd" d="M116.107 430.406C108.765 431.928 115.529 436.599 118.938 437.666C124.356 439.363 131.751 440.613 137.17 438.07C139.327 437.058 141.077 435.713 139.497 433.749C137.813 431.658 135.508 432.588 132.945 432.781C129.697 433.026 127.073 432.988 123.937 432.206C121.596 431.623 118.66 429.878 116.107 430.406" fill="#89C5CC"/>
<path fill-rule="evenodd" clip-rule="evenodd" d="M249.287 421.047C249.287 425.359 258.204 425.359 258.204 421.047C258.204 416.736 249.287 416.736 249.287 421.047" fill="#89C5CC"/>
<path fill-rule="evenodd" clip-rule="evenodd" d="M269.008 421.696C269.008 426.487 278.914 426.487 278.914 421.696C278.914 416.905 269.008 416.906 269.008 421.696" fill="#89C5CC"/>
<path fill-rule="evenodd" clip-rule="evenodd" d="M268.274 432.092C263.07 432.596 248.02 433.741 247.177 438.557C245.878 445.987 262.37 439.974 266.133 439.39C270.927 438.647 275.208 438.841 279.994 438.985C282.622 439.064 286.117 439.384 285.841 436.379C285.389 431.444 272.823 431.655 268.274 432.092" fill="#89C5CC"/>
<path fill-rule="evenodd" clip-rule="evenodd" d="M137.437 500.607C133.665 501.363 128.731 506.258 131.326 509.254C135.581 514.169 137.458 506.624 139.238 505.898C142.479 504.576 145.109 509.405 148.495 506.872C153.839 502.875 140.801 499.931 137.437 500.607" fill="#69A1AC"/>
<path fill-rule="evenodd" clip-rule="evenodd" d="M180.655 496.975C176.182 497.006 166.739 501.761 166.07 505.271C165.673 507.357 167.515 509.361 170.51 509.389C174.588 509.426 175.884 505.445 179.42 504.613C183.233 503.715 182.667 505.783 185.961 506.855C188.371 507.64 191.385 507.311 192.222 505.086C193.802 500.89 185.251 496.909 180.655 496.975" fill="#69A1AC"/>
<path fill-rule="evenodd" clip-rule="evenodd" d="M146.416 517.076C139.261 520.223 151.034 526.97 155.115 527.814C161.276 529.087 173.676 526.711 175.136 521.06C175.717 518.812 173.843 516.775 170.538 517.177C167.816 517.509 166.07 520.072 163.549 520.99C160.147 522.229 157.121 522.145 154.23 520.28C151.874 518.76 150.613 515.238 146.416 517.076" fill="#69A1AC"/>
<path fill-rule="evenodd" clip-rule="evenodd" d="M151.601 563.584C145.209 564.608 138.712 563.921 132.289 564.883C125.739 565.865 121.825 567.722 115.74 565.851C115.454 565.76 115.168 565.669 114.882 565.578C110.173 564.056 105.236 563.605 100.307 566.032C97.3893 567.468 88.5331 572.436 89.6005 575.468C91.9136 582.04 101.879 571.735 104.42 570.73C109.266 568.815 112.588 571.262 117.577 571.952C123.552 572.78 128.361 570.409 133.99 569.465C140.573 568.36 147.979 567.976 154.677 567.385C157.323 567.151 167.346 568.722 168.251 566.25C169.805 562.003 154.114 563.184 151.601 563.584" fill="#C1DEE2"/>
<path fill-rule="evenodd" clip-rule="evenodd" d="M197.719 576.82C198.137 577.058 197.801 576.867 197.719 576.82ZM215.621 563.327C221.093 562.91 238.601 559.976 242.196 564.221C244.537 566.986 240.822 577.192 237.277 578.512C234.444 579.566 227.845 578.4 224.736 578.318C218.952 578.165 213.155 578.097 207.378 577.826C205.44 577.735 199.205 578.003 197.686 576.715C195.892 575.195 195.972 567.09 195.549 565.08C200.581 566.302 210.36 563.728 215.621 563.327M227.306 559.165C220.298 559.393 213.291 559.789 206.335 560.494C202.457 560.888 198.529 561.934 194.947 562.429C193.793 562.589 191.919 562.146 190.504 562.659C186.367 564.159 189.99 574.303 190.987 577.013C192.519 581.176 196.375 581.851 201.777 582.243C208.894 582.76 216.156 582.598 223.295 582.532C230.176 582.469 239.454 583.614 243.315 578.43C245.811 575.079 248.488 567.273 246.355 563.538C243.548 558.624 233.07 558.984 227.306 559.165" fill="#C1DEE2"/>
<path fill-rule="evenodd" clip-rule="evenodd" d="M305.788 579.608C305.414 579.97 305.414 579.97 305.788 579.608ZM307.324 578.219C307.208 578.351 306.67 578.777 307.324 578.219ZM290.61 577.837C293.7 577.4 296.79 576.969 299.883 576.545C296.954 579.623 293.87 578.351 288.867 578.083C289.448 578.001 290.029 577.919 290.61 577.837M275.871 576.748C276.655 576.551 277.437 576.354 278.22 576.158C278.197 576.605 278.325 577.024 278.605 577.414C277.264 577.306 275.925 577.189 274.587 577.065C275.015 576.959 275.443 576.854 275.871 576.748M269.041 572.961C268.997 572.153 270.615 572.708 271.542 572.654C269.755 573.835 268.921 573.938 269.041 572.961M293.468 563.801C293.703 563.576 294.015 563.587 294.402 563.835C293.979 563.942 292.35 564.461 293.468 563.801M309.309 562.403C309.351 562.403 310.23 563.294 309.309 562.403ZM308.865 562.111C309.095 562.243 309.095 562.243 308.865 562.111ZM306.887 561.937C310.126 562.347 309.88 565.201 306.887 561.937ZM268.835 561.743C268.177 562.153 268.402 561.755 268.835 561.743ZM281.221 555.667C275.722 555.908 265.629 555.666 261.037 557.865C255.044 560.736 258.197 570.619 258.734 574.952C259.526 581.356 263.54 583.18 271.573 583.852C281.16 584.654 291.01 584.804 300.647 584.614C309.326 584.442 314.268 582.201 315.858 575.341C316.345 573.242 317.581 569.995 317.542 567.984C317.515 566.59 316.589 565.954 316.239 564.768C314.246 558.016 310.913 557.216 301.696 556.921C294.912 556.705 287.878 555.406 281.221 555.667" fill="#89C5CC"/>
</g>
<g opacity="0.5">
<path fill-rule="evenodd" clip-rule="evenodd" d="M572.498 400.557C586.478 400.781 602.341 406.59 600.129 418.896C598.51 427.912 588.114 435.23 576.073 435.861C563.131 436.539 549.449 429.082 547.691 419.19C545.713 408.063 558.827 400.335 572.498 400.557M565.642 395.548C559.975 396.183 554.559 398.418 549.568 400.419C547.663 401.184 538.005 405.844 545.58 407.001C527.329 429.1 570.282 449.627 594.432 435.264C605.276 428.814 610.986 416.586 603.976 407.015C596.726 397.115 579.532 393.982 565.642 395.548" fill="#89C5CC"/>
<path fill-rule="evenodd" clip-rule="evenodd" d="M562.302 414.358C562.302 418.485 570.835 418.485 570.835 414.358C570.835 410.231 562.302 410.231 562.302 414.358" fill="#89C5CC"/>
<path fill-rule="evenodd" clip-rule="evenodd" d="M578.123 415.019C578.123 419.494 587.374 419.494 587.374 415.019C587.374 410.544 578.123 410.544 578.123 415.019" fill="#89C5CC"/>
<path fill-rule="evenodd" clip-rule="evenodd" d="M567.446 423.868C566.201 427.263 580.397 429.004 580.869 425.075C581.094 423.198 568.312 421.5 567.446 423.868" fill="#89C5CC"/>
<path fill-rule="evenodd" clip-rule="evenodd" d="M609.06 421.77C625.394 420.299 642.236 420.979 658.65 421.332C662.757 421.421 666.865 421.507 670.973 421.559C673.585 421.591 679.226 422.533 681.505 421.615C690.84 417.856 672.528 416.039 669.936 415.866C653.609 414.858 628.413 414.498 612.039 414.974C607.196 415.115 606.149 422.032 609.06 421.77" fill="#89C5CC"/>
<path fill-rule="evenodd" clip-rule="evenodd" d="M682.564 482.734C682.704 469.885 683.317 456.949 684.633 444.138C685.169 438.916 685.811 433.701 686.344 428.479C686.595 426.02 687.759 422.575 685.834 420.417C683.849 418.193 679.496 417.731 676.873 419.701C673.733 422.753 674.645 427.875 674.255 431.566C673.655 437.242 672.929 442.914 672.569 448.602C671.872 459.612 671.709 470.813 672.887 481.807C673.444 486.995 674.651 492.057 676.255 497.117C676.987 499.42 682.8 509.679 681.578 511.094C679.684 513.288 665.683 512.458 662.646 512.52C654.852 512.677 647.056 512.779 639.261 512.891C632.587 512.986 625.913 513.055 619.238 513.099C616.587 513.117 601.015 512.763 604.469 515.713C565.842 517.734 526.476 514.36 488.084 513.203C486.144 513.144 482.971 512.731 480.043 512.612C479.692 511.55 479.403 510.601 479.332 509.941C478.827 505.309 478.696 500.66 478.149 496.029C477.148 487.556 475.207 479.168 474.052 470.709C472.9 462.259 473.016 453.783 472.345 445.312C472.23 443.861 471.958 431.971 467.962 429.083C469.857 429.622 472.912 429.692 474.671 429.586C488.913 428.723 503.051 426.865 517.171 425.27C521.21 424.815 530.377 425.138 533.728 423.622C536.628 422.309 537.776 417.708 532.731 418.08C518.651 419.212 504.648 420.97 490.679 422.7C486.943 423.163 483.216 423.657 479.49 424.163C477.002 424.501 470.433 424.475 468.503 425.601C466.159 426.968 465.911 427.899 466.705 428.517C465.601 428.289 464.277 428.647 462.687 429.842C459.682 432.779 462.507 440.013 462.866 443.457C463.296 447.588 463.508 451.726 463.759 455.864C464.242 463.873 465.359 471.771 467.075 479.684C468.999 488.548 470.635 497.448 472.563 506.309C473.065 508.616 473.719 510.866 474.555 513.095C469.36 515.09 472.892 518.263 477.012 518.826C477.041 518.829 477.072 518.833 477.102 518.836C478.386 521.188 480.182 523.367 481.585 520.216C481.692 519.974 481.742 519.676 481.755 519.342C492.396 520.246 504.093 519.685 514.569 520.006C537.262 520.702 560.095 521.747 582.811 521.218C591.804 521.008 600.825 520.408 609.742 519.507C614.967 518.98 620.211 518.35 625.352 517.475C625.721 517.413 626.281 517.347 626.927 517.267C627.033 517.265 627.14 517.263 627.24 517.262C635.112 517.172 642.978 517.014 650.843 516.768C657.445 516.563 664.077 516.457 670.658 515.989C674.746 515.699 683.385 515.753 685.895 512.666C688.177 509.86 684.362 502.631 683.82 499.479C682.867 493.929 682.502 488.327 682.564 482.734" fill="#C1DEE2"/>
<path fill-rule="evenodd" clip-rule="evenodd" d="M602.786 445.632C596.496 446.037 590.68 448.255 584.331 448.282C579.003 448.305 573.757 447.109 568.4 447.286C562.115 447.492 558.657 450.543 553.153 451.564C548.77 452.377 546.009 449.858 542.154 448.744C537.287 447.336 533.692 448.063 529.52 450.191C526.455 451.755 519.306 455.264 519.361 458.427C519.525 468.007 534.414 454.773 537.415 454.613C541.403 454.4 545.858 457.812 550.101 458.007C555.711 458.265 559.307 455.549 564.473 454.56C569.697 453.56 575.344 454.785 580.58 455.166C586.555 455.6 591.784 454.6 597.565 453.529C603.167 452.491 607.94 452.546 613.632 453.418C617.474 454.006 627.045 457.426 628.725 453.029C631.014 447.041 607.184 445.351 602.786 445.632" fill="#89C5CC"/>
<path fill-rule="evenodd" clip-rule="evenodd" d="M604.701 463.905C591.813 464.844 578.845 465.668 565.898 465.931C560.29 466.046 538.732 464.242 540.644 469.591C542.282 474.179 571.619 471.291 577.594 470.941C584.191 470.556 590.777 470.018 597.341 469.395C599.667 469.174 605.285 469.402 606.927 467.938C608.491 466.54 607.72 463.678 604.701 463.905" fill="#89C5CC"/>
<path fill-rule="evenodd" clip-rule="evenodd" d="M515.786 488.269C515.493 488.362 515.493 488.362 515.786 488.269ZM518.505 488.242C521.718 488.165 521.029 486.893 524.235 487.556C525.713 487.862 525.865 487.408 527.011 488.469C529.247 490.539 527.141 495.046 524.937 496.713C516.775 502.889 506.98 488.516 518.505 488.242M518.505 482.183C496.161 482.746 505.51 508.66 524.957 503.37C532.988 501.185 538.037 491.343 533.313 485.813C531.015 483.122 528.085 482.644 524.235 482.457C523.341 482.414 522.216 483.389 521.659 483.345C520.333 483.24 520.456 482.128 518.505 482.183" fill="#89C5CC"/>
<path fill-rule="evenodd" clip-rule="evenodd" d="M571.938 489.157C571.539 489.065 578.993 490.692 578.178 490.055C579.918 491.414 577.578 494.627 575.609 495.188C570.842 496.547 568.166 490.981 571.938 489.157M575.245 482.13C568.249 482.875 562.85 485.062 561.894 490.903C561.011 496.294 565.863 501.754 573.517 501.859C590.199 502.088 590.707 480.511 575.245 482.13" fill="#89C5CC"/>
<path fill-rule="evenodd" clip-rule="evenodd" d="M651.401 489.393C652.378 498.967 639.155 490.204 651.401 489.393ZM645.726 479.15C644.57 480.635 645.556 482.209 647.301 483.072C631.704 485.547 635.236 503.169 651.108 500.565C659.179 499.241 660.664 492.869 659.461 487.608C658.888 485.106 650.584 472.915 645.726 479.15" fill="#89C5CC"/>
</g>
<path opacity="0.5" fill-rule="evenodd" clip-rule="evenodd" d="M682.627 488.345C677.977 488.966 666.986 492.821 667.082 496.962C667.23 503.425 676.572 496.365 678.65 495.416C689.813 490.315 704.272 496.925 715.895 498.331C721.225 498.975 731.65 500.167 736.357 497.485C744.728 492.717 725.368 493.911 722.903 493.719C709.501 492.68 696.168 486.529 682.627 488.345" fill="#C1DEE2"/>
<g opacity="0.5">
<path fill-rule="evenodd" clip-rule="evenodd" d="M902.245 442.9C902.24 449.514 901.795 456.264 903.418 462.799C903.91 464.777 904.297 468.566 907.077 469.592C909.869 470.623 912.576 469.465 913.27 467.316C914.079 464.816 912.304 461.075 912.124 458.45C911.878 454.864 911.861 451.274 911.859 447.685C911.857 445.092 912.994 440.922 908.917 439.588C905.886 438.596 902.245 440.44 902.245 442.9" fill="#C1DEE2"/>
<path fill-rule="evenodd" clip-rule="evenodd" d="M1041.51 432.44C1012.32 434.64 982.715 435.097 953.424 436.244C939.884 436.774 923.521 436.098 910.765 440.032C908.398 440.763 899.914 444.83 906.801 446.486C908.948 447.003 911.128 445.266 912.891 444.684C915.827 443.717 919.225 443.417 922.356 443.039C948.971 439.83 976.81 440.389 1003.7 438.89C1010.59 438.505 1017.48 438.11 1024.36 437.602C1029.27 437.239 1039.6 434.581 1044.13 435.941C1051.87 438.264 1051.69 453.358 1051.85 458.549C1051.93 461.234 1048.46 470.871 1055.35 469.894C1060.88 469.112 1058.88 459.1 1058.45 456.362C1057.32 449.183 1055.39 431.384 1041.51 432.44" fill="#C1DEE2"/>
<path fill-rule="evenodd" clip-rule="evenodd" d="M1052.27 469.546C1026.92 471.264 1000.98 469.578 975.528 470.254C962.185 470.609 948.856 471.173 935.512 471.504C929.741 471.648 923.964 471.654 918.189 471.684C915.428 471.698 902.859 472.955 910.635 477.066C914.077 478.886 925.048 477.42 928.998 477.385C934.931 477.332 940.861 477.147 946.789 476.973C960.523 476.57 974.247 476.011 987.988 475.732C1001.13 475.465 1014.28 475.408 1027.42 475.14C1033.96 475.007 1040.59 474.856 1047.07 474.14C1048.54 473.978 1053.29 473.849 1054.3 472.625C1055.26 471.467 1054.59 469.378 1052.27 469.546" fill="#89C5CC"/>
<path fill-rule="evenodd" clip-rule="evenodd" d="M927.675 455.257C927.539 455.499 927.539 455.499 927.675 455.257ZM938.653 452.752C939.054 452.879 939.054 452.879 938.653 452.752ZM938.139 452.682C944.055 457.209 934.957 462.613 929.415 458.195C923.533 453.506 934.331 452.697 938.139 452.682M931.865 445.833C911.487 448.555 918.702 468.945 937.734 465.998C946.09 464.705 950.868 458.385 947.992 452.314C946.868 449.943 944.42 447.34 941.009 446.592C939.308 446.22 937.804 446.806 936.184 446.669C934.639 446.538 933.782 445.573 931.865 445.833" fill="#C1DEE2"/>
<path fill-rule="evenodd" clip-rule="evenodd" d="M1009.85 451.572C997.565 451.601 985.274 451.993 972.988 452.168C969.219 452.221 959.533 450.955 959.518 455.415C959.501 460.181 970.291 458.421 973.881 458.357C986.068 458.138 998.287 457.737 1010.43 456.866C1013.49 456.646 1024.11 457.026 1024.1 453.895C1024.08 450.579 1012.33 451.572 1009.85 451.572" fill="#C1DEE2"/>
<path fill-rule="evenodd" clip-rule="evenodd" d="M1039.2 482.679C1008.81 483.291 978.465 483.504 948.098 484.672C936.74 485.109 925.397 485.434 914.022 485.434C911.831 485.434 907.42 484.797 905.358 485.833C899.762 488.642 906.134 491.054 909.781 491.205C934.727 492.245 960.035 489.658 984.967 489.074C999.563 488.732 1014.16 488.631 1028.75 488.074C1032.73 487.922 1036.71 487.745 1040.68 487.514C1042.97 487.381 1049.01 487.745 1050.86 486.742C1058.92 482.36 1041.92 482.624 1039.2 482.679" fill="#89C5CC"/>
<path fill-rule="evenodd" clip-rule="evenodd" d="M899.762 493.835C899.476 499.751 899.446 505.564 900.477 511.447C900.883 513.762 901.069 516.389 904.683 516.977C907.965 517.511 909.63 515.647 910.31 513.58C911.97 508.534 910.509 501.27 910.49 496.028C910.481 493.436 910.477 490.535 906.211 489.949C902.957 489.501 899.886 491.267 899.762 493.835" fill="#89C5CC"/>
<path fill-rule="evenodd" clip-rule="evenodd" d="M1071.42 508.097C1022.22 510.043 973.088 511.742 923.857 513.305C920.018 513.427 890.191 513.183 900.618 520.992C903.839 523.403 912.137 521.77 916.302 521.617C922.561 521.386 928.823 521.209 935.083 520.97C959.899 520.022 984.78 519.766 1009.58 518.702C1023.22 518.116 1036.84 517.2 1050.42 516.006C1056.87 515.439 1064.89 515.498 1070.94 513.598C1074.05 512.62 1077.4 507.858 1071.42 508.097" fill="#89C5CC"/>
<path fill-rule="evenodd" clip-rule="evenodd" d="M1043.13 478.088C1039.39 480.886 1041.31 486.404 1041.59 489.862C1041.98 494.62 1042.45 499.381 1043.24 504.113C1043.76 507.187 1043.49 511.972 1045.67 514.626C1048.23 517.736 1053.86 517.392 1056.17 514.388C1058.22 511.731 1057.18 506.141 1057.13 503.197C1057.06 499.126 1056.72 495.048 1056.4 490.985C1056.13 487.589 1057.15 482.146 1054.66 479.24C1052.14 476.286 1046.63 475.47 1043.13 478.088" fill="#89C5CC"/>
<path fill-rule="evenodd" clip-rule="evenodd" d="M930.682 499.797C930.243 500.051 930.243 500.051 930.682 499.797ZM939.42 498.975C947.573 500.206 934.389 507.353 930.223 502.448C929.572 501.682 929.234 500.74 930.278 500.074C931.232 499.465 931.831 500.542 932.732 500.253C934.283 499.754 937.764 498.929 939.42 498.975M938.295 493.108C932.729 493.439 925.075 493.697 922.32 497.886C918.618 503.513 924.949 509.024 932.272 509.88C939.319 510.704 949.842 507.773 950.406 501.602C950.86 496.627 944.557 492.726 938.295 493.108" fill="#89C5CC"/>
<path fill-rule="evenodd" clip-rule="evenodd" d="M984.768 496.084C979.006 496.153 967.679 494.874 962.659 496.983C957.691 499.069 959.906 502.785 964.438 503.674C967.434 504.261 972.329 503.313 975.448 503.218C979.551 503.093 983.657 503.066 987.762 503.023C994.666 502.953 1001.57 503.012 1008.47 503.012C1015.52 503.012 1022.7 503.157 1029.73 502.768C1038.64 502.275 1038.4 497.268 1029.69 496.642C1014.89 495.579 999.614 495.908 984.768 496.084" fill="#89C5CC"/>
<path fill-rule="evenodd" clip-rule="evenodd" d="M970.049 552.163C970.049 554.543 972.86 552.163 972.84 552.163C972.86 552.163 970.049 549.784 970.049 552.163" fill="#89C5CC"/>
<path fill-rule="evenodd" clip-rule="evenodd" d="M906.45 533.013C906.631 539.928 906.75 546.849 907.144 553.759C907.269 555.944 906.435 560.211 909.963 561.325C913.889 562.564 915.109 559.474 915.562 557.38C916.994 550.745 915.59 543.17 915.452 536.457C915.406 534.203 916.056 531.065 912.646 529.941C909.865 529.024 906.394 530.726 906.45 533.013" fill="#89C5CC"/>
<path fill-rule="evenodd" clip-rule="evenodd" d="M1057.92 533.121C1058.15 533.533 1058.15 533.533 1057.92 533.121ZM1058.25 533.05C1058.44 533.11 1059.2 533.35 1058.25 533.05ZM983.841 527.461C969.701 527.628 955.552 527.754 941.421 528.208C935.39 528.403 929.29 528.559 923.279 528.986C919.023 529.288 908.447 529.414 905.686 532.026C899.989 537.417 912.071 535.947 914.673 535.509C919.41 534.712 924.244 534.456 929.082 534.265C939.581 533.849 950.084 533.627 960.596 533.468C989.101 533.038 1017.63 533.103 1046.14 533.006C1048.9 532.997 1053.89 532.164 1056.44 533.002C1058.99 533.842 1058.85 535.908 1059.11 538.306C1059.46 541.497 1056.66 547.579 1058.8 550.263C1062.11 554.426 1066.93 550.891 1067.67 547.856C1068.68 543.661 1067.07 538.625 1065.49 534.616C1063.26 528.959 1060.17 528.734 1052.88 528.292C1044.37 527.776 1035.88 527.463 1027.34 527.403C1012.85 527.303 998.338 527.292 983.841 527.461" fill="#89C5CC"/>
<path fill-rule="evenodd" clip-rule="evenodd" d="M1039.77 556.047C1009.1 558.721 977.557 557.145 946.723 557.24C939.226 557.263 931.721 557.308 924.23 557.581C920.274 557.724 910.896 556.906 908.185 559.197C902.472 564.028 912.764 564.73 916.521 564.53C924.118 564.125 931.733 563.94 939.349 563.895C966.176 563.74 993.154 564.68 1019.96 563.686C1031.19 563.27 1042.17 561.828 1053.19 560.216C1055.63 559.859 1072.35 557.473 1062.82 554.613C1057.18 552.923 1045.69 555.528 1039.77 556.047" fill="#89C5CC"/>
<path fill-rule="evenodd" clip-rule="evenodd" d="M950.222 547.204C950.008 547.411 950.008 547.411 950.222 547.204ZM950.016 547.169C949.943 547.317 949.718 547.682 950.016 547.169ZM948.081 545.295C948.126 545.339 948.309 545.514 948.081 545.295ZM948.007 545.281C948.745 545.943 949.243 546.681 949.498 547.496C943.144 548.788 940.695 544.929 948.007 545.281M947.605 545.101C947.607 545.102 948.501 545.384 947.605 545.101ZM937.166 539.351C933.054 543.196 929.659 547.677 934.786 552.069C939.371 555.995 948.595 556.502 954.413 553.881C960.406 551.179 959.889 545.492 955.708 541.781C953.016 539.391 950.834 539.457 946.928 539.067C944.268 538.801 939.423 537.249 937.166 539.351" fill="#89C5CC"/>
<path fill-rule="evenodd" clip-rule="evenodd" d="M979.679 546.467C979.679 551.587 1009.13 549.383 1014.36 549.378C1018.75 549.373 1045.29 551.19 1043.38 545.921C1041.82 541.592 1015.68 543.744 1010.11 543.738C1005.3 543.733 979.679 541.253 979.679 546.467" fill="#89C5CC"/>
</g>
<g opacity="0.5">
<path fill-rule="evenodd" clip-rule="evenodd" d="M595.253 594.438C610 596.045 625.341 601.252 625.212 614.14C625.104 624.975 612.999 636.507 597.456 635.86C583.467 635.278 570.296 623.794 568.545 613.952C567.637 608.853 569.335 603.363 573.33 599.168C578.565 593.672 586.871 593.681 595.253 594.438M588.287 587.433C577.621 587.477 569.817 590.374 563.216 596.488C560.849 598.68 558.095 601.04 556.293 603.524C554.61 605.844 554.905 611.743 560.681 608.977C559.259 620.398 568.149 631.483 580.93 637.335C594.823 643.696 610.525 642.456 622.087 633.54C632.671 625.377 636.396 611.591 628.653 601.497C620.914 591.407 602.984 587.325 588.287 587.433" fill="#89C5CC"/>
<path fill-rule="evenodd" clip-rule="evenodd" d="M620.271 584.372C613.442 588.13 607.207 593.077 602.028 598.096C596.966 603.001 593.62 609.126 587.539 613.404C584.468 610.892 580.87 604.11 574.745 606.801C569.661 609.034 572.934 612.874 575.41 615.395C581.803 621.904 588.902 624.524 597.101 618.092C604.548 612.251 608.776 604.459 615.739 598.282C618.793 595.572 623.511 592.881 625.943 589.889C628.147 587.177 625.421 581.53 620.271 584.372" fill="#89C5CC"/>
</g>
<g opacity="0.5">
<path fill-rule="evenodd" clip-rule="evenodd" d="M878.337 176.893C878.347 177.405 878.357 177.887 878.371 178.33C878.69 188.002 878.505 198.17 877.458 207.82C877.097 211.152 873.869 215.374 870.186 210.782C868.567 208.762 868.794 204.615 868.96 201.565C869.005 200.747 869.046 200.008 869.045 199.41C869.042 196.006 869.28 192.567 869.519 189.12C869.985 182.379 870.455 175.603 869.126 168.983C869.099 168.849 869.074 168.72 869.049 168.596C868.472 165.685 868.432 165.484 864.168 165.55C862.39 165.578 860.613 165.614 858.835 165.65C857.087 165.685 855.338 165.721 853.59 165.748C851.854 165.776 850.117 165.801 848.381 165.826C842.936 165.904 837.49 165.983 832.048 166.133C831.139 166.158 829.444 166.317 827.305 166.519C823.03 166.922 816.979 167.491 811.887 167.488C811.888 167.504 811.89 167.521 811.892 167.537C811.894 167.567 811.897 167.597 811.898 167.627C811.956 169.737 811.232 172.093 810.504 174.46C809.895 176.442 809.284 178.431 809.127 180.291C808.753 184.716 808.749 189.187 808.745 193.659C808.74 199.104 808.735 204.549 808.063 209.909C808.031 210.171 808.011 210.447 807.991 210.727C807.988 210.764 807.986 210.801 807.983 210.838C808.213 210.812 808.437 210.793 808.653 210.783C812.323 210.608 816.023 210.593 819.718 210.577C821.756 210.569 823.792 210.56 825.821 210.525C829.463 210.461 833.149 210.464 836.851 210.467C845.022 210.474 853.266 210.481 861.259 209.774C863.619 209.544 864.445 211.817 863.386 212.996C862.438 214.051 859.828 214.222 857.916 214.347C857.43 214.379 856.99 214.408 856.633 214.447C851.478 215.02 846.254 215.22 841.053 215.393C835.59 215.575 830.122 215.711 824.656 215.825C823.355 215.852 821.619 215.984 819.693 216.13C814.611 216.516 808.211 217.001 805.034 215.922C801.621 214.763 801.7 213.475 803.094 212.478C802.482 211.469 802.386 209.995 802.311 208.842C802.283 208.402 802.257 208.009 802.207 207.706C801.449 203.116 800.993 198.584 800.982 193.954C800.96 184.885 800.985 175.466 804.326 166.688C802.988 166.248 802.18 165.6 802.184 164.665C802.199 159.955 821.724 160.195 831.004 160.309C832.664 160.329 833.996 160.345 834.83 160.329C841.591 160.196 848.353 160.179 855.116 160.206C856.545 160.212 858.135 160.142 859.782 160.069C863.287 159.914 867.051 159.748 870.078 160.276C878.03 161.662 878.222 171.171 878.337 176.893Z" fill="#89C5CC"/>
<path fill-rule="evenodd" clip-rule="evenodd" d="M928.072 161.309C935.455 161.015 942.843 160.948 950.235 160.928C958.062 160.898 965.9 161.004 973.723 161.184L973.904 161.188C977.371 161.266 996.638 161.701 987.786 165.306C987.27 165.516 986.689 165.692 986.054 165.838C986.429 167.507 986.475 169.23 986.415 170.06C986.186 173.209 986.035 176.361 985.885 179.512C985.782 181.648 985.68 183.784 985.554 185.919C985.206 191.818 984.874 197.717 984.603 203.618C984.57 204.343 984.621 205.29 984.678 206.346V206.346C984.866 209.837 985.118 214.515 982.593 216.245C980.377 217.763 978.862 217.459 977.842 216.428C971.5 217.81 958.475 217.361 951.926 217.135C950.348 217.08 949.145 217.039 948.503 217.039C947.355 217.039 945.222 217.147 942.528 217.283C931.313 217.848 910.379 218.904 910.336 214.753C910.332 214.354 910.504 213.996 910.829 213.675C909.941 212.995 909.141 211.995 908.628 210.748C906.785 206.271 906.611 201.44 906.474 196.798C906.282 190.243 906.279 183.68 906.277 177.119C906.276 173.749 906.275 170.38 906.248 167.012C905.049 165.803 905.761 164.421 907.257 163.456C910.442 161.404 918.346 161.379 924.065 161.361C925.604 161.356 926.985 161.352 928.072 161.309ZM916.059 211.854C923.175 210.714 935.165 211.081 941.589 211.278C943.271 211.329 944.572 211.369 945.303 211.367C951.864 211.347 958.427 211.416 964.983 211.613C965.662 211.633 966.668 211.614 967.853 211.592C970.233 211.547 973.336 211.488 975.972 211.707C975.936 211.439 975.913 211.194 975.898 210.982C975.603 206.601 975.816 202.182 976.029 197.788C976.074 196.854 976.119 195.921 976.159 194.989C976.299 191.704 976.486 188.421 976.673 185.137L976.673 185.136C976.791 183.068 976.908 181 977.014 178.931C977.061 178.024 976.992 176.791 976.914 175.405L976.914 175.405C976.755 172.583 976.56 169.124 977.233 166.467C974.806 166.433 972.319 166.304 970.037 166.185C967.839 166.071 965.832 165.967 964.255 165.967C962.254 165.966 960.253 165.962 958.252 165.957H958.252H958.252C952.709 165.944 947.167 165.932 941.623 166.014C941.097 166.022 940.571 166.03 940.044 166.037C932.411 166.148 924.714 166.259 917.145 167.014C916.701 167.058 916.168 167.144 915.579 167.247C916.408 169.851 916.002 173.521 915.646 176.735L915.646 176.735C915.473 178.296 915.312 179.75 915.31 180.921C915.299 188.208 915.556 195.465 915.812 202.715L915.812 202.716C915.908 205.458 916.005 208.2 916.087 210.942C916.097 211.269 916.087 211.573 916.059 211.854Z" fill="#89C5CC"/>
<path fill-rule="evenodd" clip-rule="evenodd" d="M835.068 215.614C830.216 217.742 832.832 226.254 834.513 229.198C837.276 234.039 842.883 237.827 848.933 240.34C861.161 245.418 878.787 244.069 888.035 252.874C888.131 252.965 891.328 255.341 892.055 252.264C892.653 249.739 886.685 245.883 884.373 244.617C877.797 241.018 869.363 239.857 861.756 238.059C853.645 236.142 844.743 232.607 841.342 226.328C840.137 224.104 842.433 212.368 835.068 215.614" fill="#C1DEE2"/>
<path fill-rule="evenodd" clip-rule="evenodd" d="M945.982 219.707C941.536 220.627 944.477 225.22 944.469 227.52C944.461 230.389 943.239 233.392 940.884 235.682C934.911 241.488 923.216 242.358 914.447 244.023C908.081 245.233 892.848 247.827 892.252 254.291C891.586 261.51 905.034 252.725 906.17 252.365C918.74 248.903 935.002 248.235 944.703 240.615C948.708 237.47 951.075 233.272 951.451 228.939C951.663 226.499 951.699 218.534 945.982 219.707" fill="#C1DEE2"/>
<path fill-rule="evenodd" clip-rule="evenodd" d="M854.114 283.741C854.01 270.384 871.036 262.304 886.432 259.265C904.938 255.605 922.175 265.339 924.357 279.343C926.659 294.122 911.823 306.019 892.258 306.672C875.047 307.245 854.224 297.994 854.114 283.741ZM895.451 265.687C896.452 266.709 897.355 268.339 895.338 269.227C893.399 270.075 892.43 269.055 891.455 268.028C890.839 267.379 890.22 266.728 889.353 266.544C887.103 266.069 883.488 267.845 881.614 268.881C880.853 269.301 879.771 270.206 878.506 271.264C874.478 274.632 868.598 279.549 865.347 275.318C852.384 292.124 884.702 304.701 903.079 298.341C923.262 291.356 919.334 265.82 895.451 265.687Z" fill="#89C5CC"/>
<path fill-rule="evenodd" clip-rule="evenodd" d="M878.513 279.269C878.513 282.335 884.962 282.335 884.962 279.269C884.962 276.238 878.513 276.108 878.513 279.269" fill="#89C5CC"/>
<path fill-rule="evenodd" clip-rule="evenodd" d="M889.859 278.694C889.859 282.449 897.762 282.449 897.762 278.694C897.762 274.981 889.859 274.823 889.859 278.694" fill="#89C5CC"/>
<path fill-rule="evenodd" clip-rule="evenodd" d="M881.74 287.445C875.277 290.299 893.759 295.97 894.489 290.175C894.804 287.675 891.579 288.349 889.429 288.165C887.372 287.989 883.691 286.592 881.74 287.445" fill="#89C5CC"/>
<path fill-rule="evenodd" clip-rule="evenodd" d="M878.937 307.694C879.218 314.983 879.082 322.269 880.924 329.457C881.274 330.822 881.517 335.775 882.954 336.789C886.49 339.284 886.548 334.502 886.685 332.669C887.176 326.106 886.258 319.338 886.055 312.761C886.012 311.345 886.511 308.413 885.621 307.042C884.209 304.867 878.799 304.221 878.937 307.694" fill="#C1DEE2"/>
<path fill-rule="evenodd" clip-rule="evenodd" d="M872.024 301.783C857.855 313.722 838.345 312.843 818.688 313.888C808.303 314.441 797.802 315.575 789.445 320.618C785.558 322.965 782.207 325.903 779.955 329.252C778.971 330.716 774.301 339.164 781.314 337.16C783.801 336.449 786.249 330.862 787.857 329.21C790.921 326.063 794.841 323.465 799.543 321.776C808.614 318.518 819.445 318.573 829.281 318.16C839.562 317.728 850.597 317.324 860.048 313.968C864.493 312.389 868.664 310.419 872.242 307.882C873.52 306.975 876.262 305.434 876.466 304.047C876.7 302.461 874.67 299.559 872.024 301.783" fill="#C1DEE2"/>
<path fill-rule="evenodd" clip-rule="evenodd" d="M800.497 338.428C787.188 338.762 773.895 339.166 760.605 339.798C757.881 339.927 748.8 339.514 751.113 343.704C752.967 347.063 764.041 344.841 767.705 344.678C781.554 344.061 795.46 343.847 809.28 342.911C812.385 342.702 826.418 342.785 820.624 338.654C817.867 336.688 804.306 338.33 800.497 338.428" fill="#89C5CC"/>
<path fill-rule="evenodd" clip-rule="evenodd" d="M742.662 343.247C738.467 347.384 740.394 357.438 740.711 362.411C741.019 367.23 739.772 376.041 748.15 376.788C745.49 376.526 750.17 376.909 750.931 376.94C752.633 377.009 754.342 377.031 756.045 377.045C759.98 377.077 763.917 377.038 767.852 376.978C776.765 376.845 785.7 376.65 794.602 376.28C798.343 376.124 818.642 376.254 819.445 373.336C820.472 369.607 801.01 371.717 797.527 371.836C789.042 372.128 780.544 372.189 772.051 372.273C767.842 372.315 763.629 372.346 759.42 372.284C757.682 372.259 750.799 372.794 749.743 371.924C748.842 371.182 749.545 364.369 749.526 363.327C749.464 359.93 749.469 356.524 749.63 353.128C749.739 350.842 751.385 346.492 750.043 344.344C748.738 342.256 744.935 341.543 742.662 343.247" fill="#89C5CC"/>
<path fill-rule="evenodd" clip-rule="evenodd" d="M811.194 343.441C811.437 351.008 811.512 358.729 813.893 366.13C814.685 368.593 815.795 373.672 819.091 374.947C822.55 376.285 825.537 374.375 825.763 371.802C826.048 368.566 823.74 364.319 823.267 361C822.714 357.127 822.393 353.25 822.204 349.358C822.061 346.432 823.246 342.043 819.529 340.156C816.191 338.46 811.085 340.168 811.194 343.441" fill="#89C5CC"/>
<path fill-rule="evenodd" clip-rule="evenodd" d="M837.68 341.593C833.541 344.688 835.391 354.489 835.908 358.467C836.287 361.38 840.535 375.711 846.899 368.238C849.713 364.932 846.137 356.191 846.162 352.337C846.179 349.882 847.336 346.777 846.778 344.419C846.039 341.302 841.435 338.778 837.68 341.593" fill="#89C5CC"/>
<path fill-rule="evenodd" clip-rule="evenodd" d="M866.341 339.038C878.774 338.075 891.222 337.352 903.724 337.263C904.324 337.259 904.954 337.253 905.61 337.247C914.179 337.166 927.055 337.043 932.821 341.873C935.963 344.505 937.386 348.573 938.626 352.119C938.858 352.781 939.083 353.424 939.311 354.036C939.507 354.56 939.761 355.156 940.035 355.802C941.33 358.846 943.083 362.965 941.306 365.515C940.332 366.914 938.763 368.106 936.382 367.611C935.826 367.495 935.39 367.347 935.048 367.173C935.961 367.914 936.364 368.969 935.772 370.002C934.627 371.998 931.01 372.04 928.159 372.074C927.469 372.082 926.823 372.09 926.268 372.124C916.776 372.718 907.24 373.115 897.714 373.177C893.178 373.207 888.642 373.179 884.107 373.151C879.437 373.123 874.768 373.094 870.1 373.129C866.711 373.154 863.26 373.395 859.807 373.637C855.449 373.943 851.088 374.248 846.849 374.118C843.678 374.02 840.291 373.24 841.095 370.163C841.75 367.651 844.9 367.432 847.722 367.236C847.968 367.219 848.211 367.202 848.45 367.183C857.436 366.496 866.427 366.253 875.459 366.278C894.434 366.327 913.393 366.253 932.367 366.179C933.147 366.227 933.881 366.451 934.486 366.792C933.803 366.169 933.817 365.341 933.831 364.458C933.837 364.059 933.844 363.648 933.786 363.241C933.67 362.422 933.564 361.607 933.457 360.793C933.107 358.104 932.759 355.435 932.075 352.729C931.972 352.321 931.873 351.872 931.768 351.396C931.146 348.588 930.324 344.867 927.349 343.351C924.359 341.826 918.495 341.899 913.924 341.956C912.69 341.972 911.551 341.986 910.588 341.967C898.392 341.731 886.127 342.381 873.986 343.21C873.054 343.273 872.12 343.335 871.185 343.396C866.566 343.698 861.924 344.001 857.371 344.622C856.539 344.735 855.266 345.069 853.806 345.451C849.923 346.468 844.715 347.832 842.946 346.33C837.084 341.353 862.844 339.309 866.341 339.038Z" fill="#89C5CC"/>
<path fill-rule="evenodd" clip-rule="evenodd" d="M998.616 327.705C999.157 328.227 999.157 328.227 998.616 327.705ZM914.479 296.868C906.928 300.201 920.904 309.978 924.464 311.491C932.476 314.893 943.485 315.407 952.431 316.364C963.752 317.576 976.074 318.021 986.954 320.807C991.59 321.994 994.536 323.846 997.572 326.692C999.11 328.135 1002.81 334.351 1006.19 332.879C1012.98 329.916 994.679 317.479 990.646 316.142C981.48 313.102 970.646 312.251 960.846 311.071C951.733 309.972 942.424 309.156 933.537 307.221C928.649 306.157 925.176 304.44 922.359 301.155C920.603 299.107 919.163 294.811 914.479 296.868" fill="#C1DEE2"/>
<path fill-rule="evenodd" clip-rule="evenodd" d="M1030.24 335.064C1021.53 335.209 1012.84 335.712 1004.16 336.215C999.282 336.497 994.408 336.779 989.533 336.998C988.009 337.066 986.483 337.128 984.955 337.189L984.955 337.189C980.66 337.363 976.36 337.537 972.086 337.861C971.437 337.91 970.684 337.957 969.865 338.007C966.235 338.231 961.285 338.536 958.122 339.531C955.222 337.884 950.748 339.284 950.678 342.219C950.558 347.565 950.624 352.816 951.492 358.129C951.694 359.363 952.732 365.607 954.99 368.858C954.187 371.927 957.672 372.788 960.917 373.023C973.481 373.934 986.658 373.227 999.656 372.53C1006.27 372.175 1012.83 371.823 1019.25 371.687C1021.38 371.642 1023.54 371.624 1025.71 371.605C1032.81 371.546 1040.04 371.485 1046.9 370.478C1047.18 370.438 1047.48 370.398 1047.79 370.356C1050.5 369.99 1054.24 369.486 1054.53 367.243C1054.7 365.897 1053.69 364.665 1052 364.492C1052.11 363.37 1051.92 362.146 1051.79 361.246C1051.75 361.037 1051.72 360.845 1051.7 360.676C1051.29 357.556 1050.26 354.457 1049.23 351.397C1049 350.71 1048.77 350.024 1048.55 349.34C1048.31 348.583 1048.08 347.683 1047.84 346.712L1047.84 346.712C1046.97 343.285 1045.89 338.978 1043 336.979C1039.98 334.882 1035.05 334.975 1031.11 335.049C1030.81 335.054 1030.52 335.06 1030.24 335.064ZM1045.56 364.826C1044.53 362.798 1044.22 360.055 1043.94 357.448V357.447C1043.76 355.81 1043.58 354.227 1043.24 352.908C1042.98 351.917 1042.76 350.874 1042.55 349.812L1042.55 349.812C1042.02 347.235 1041.48 344.557 1040.19 342.299C1038.47 339.274 1036.93 339.39 1033.3 339.663C1032.62 339.714 1031.87 339.771 1031.04 339.813C1027.33 340.002 1023.63 340.242 1019.94 340.483C1018.16 340.598 1016.39 340.713 1014.61 340.823C1007.02 341.292 999.416 341.652 991.816 342.013C987.376 342.223 982.935 342.433 978.494 342.666C975.01 342.848 971.609 343.345 968.222 343.84L968.222 343.84C965.539 344.233 962.865 344.624 960.165 344.856C960.126 345.549 960.048 346.244 959.975 346.907L959.975 346.907C959.874 347.809 959.78 348.65 959.8 349.339C959.889 352.392 960.248 355.427 960.607 358.466L960.607 358.466C960.663 358.933 960.718 359.401 960.772 359.869C960.837 360.429 960.998 361.149 961.176 361.948C961.451 363.183 961.769 364.606 961.84 365.917C962.168 365.916 962.495 365.916 962.817 365.917C963.233 365.918 963.64 365.92 964.032 365.914C973.602 365.789 983.165 365.571 992.728 365.295C993.949 365.26 995.17 365.224 996.39 365.189C1004.92 364.939 1013.46 364.69 1022 364.616C1025.39 364.587 1028.83 364.667 1032.27 364.747C1036.71 364.85 1041.16 364.954 1045.56 364.826Z" fill="#89C5CC"/>
</g>
<path fill-rule="evenodd" clip-rule="evenodd" d="M384.181 444.584C391.455 448.971 398.602 451.091 401.957 450.226C410.37 448.056 411.144 417.257 404.634 405.115C398.125 392.974 364.661 387.681 362.974 411.738C362.388 420.088 365.892 427.539 371.068 433.619L361.787 476.909H388.747L384.181 444.584Z" fill="#B28B67"/>
<path fill-rule="evenodd" clip-rule="evenodd" d="M393.985 391.891C390.301 390.767 384.954 390.386 382.704 390.644C383.984 387.576 384.492 384.157 384.078 380.829C383.675 377.595 382.231 374.841 380.896 371.955C380.28 370.625 379.582 369.303 378.542 368.285C377.482 367.249 376.141 366.565 374.735 366.238C373.295 365.904 371.79 365.932 370.348 366.235C369.711 366.369 369.138 366.661 368.513 366.823C367.873 366.989 367.562 366.588 367.097 366.185C365.977 365.214 364.334 364.734 362.917 364.562C361.327 364.37 359.676 364.61 358.16 365.133C356.684 365.642 355.266 366.469 354.198 367.674C353.723 368.21 353.292 368.821 353.011 369.495C352.896 369.771 352.877 369.935 352.602 370.036C352.347 370.13 352.048 370.133 351.785 370.222C349.24 371.085 347.063 373.053 345.879 375.58C345.187 377.054 344.86 379.649 344.949 382.558C345.039 385.468 347.664 393.058 350.119 395.827C352.311 398.298 355.532 399.929 358.64 400.643C356.577 403.003 355.203 405.952 354.188 408.952C353.085 412.21 352.402 415.595 352.15 419.045C351.91 422.322 351.888 425.788 352.656 428.995C353.374 431.994 354.91 434.455 357.474 436.016C358.649 436.731 359.912 437.268 361.183 437.759C362.436 438.243 363.692 438.713 365.004 438.985C367.488 439.498 370.349 439.41 372.262 437.432C372.951 436.719 373.709 435.823 374.212 434.952C374.393 434.639 374.502 434.434 374.283 434.127C374.019 433.761 373.594 433.48 373.255 433.193C371.327 431.557 370.134 429.373 369.833 426.778C369.527 424.145 370.234 420.747 372.792 419.598C375.95 418.179 379.428 419.807 382.235 421.325C383.427 417.112 385.877 413.319 389.717 411.386C393.965 409.248 398.84 408.998 403.205 407.164C404.343 406.686 405.502 406.143 406.339 405.169C406.689 404.762 407.1 404.234 407.24 403.696C407.423 402.989 406.967 402.396 406.615 401.844C404.749 398.921 397.669 393.015 393.985 391.891Z" fill="#191847"/>
<path fill-rule="evenodd" clip-rule="evenodd" d="M359.54 766.932C407.311 766.932 446.037 729.941 446.037 684.309C446.037 638.678 407.311 601.686 359.54 601.686C311.769 601.686 273.043 638.678 273.043 684.309C273.043 729.941 311.769 766.932 359.54 766.932Z" fill="#C5CFD6"/>
<path fill-rule="evenodd" clip-rule="evenodd" d="M494.015 679.903C498.194 694.548 508.602 722.306 522.995 754.184L536.672 750.191C524.707 676.837 514.749 628.273 509.045 613.492C505.276 603.726 476.764 604.87 480.044 624.52C481.419 632.761 486.862 654.826 494.015 679.903ZM437.8 627.947C415.495 632.571 369.25 648.918 356.045 654.142C347.745 657.425 353.096 668.558 360.176 667.584C361.375 667.419 365.617 666.944 371.946 666.236C392.276 663.96 434.143 659.273 465.896 654.699C482.615 652.291 473.621 620.952 456.261 624.268C450.421 625.384 444.209 626.618 437.8 627.947Z" fill="#B28B67"/>
<path fill-rule="evenodd" clip-rule="evenodd" d="M509.919 605.214C507.639 597.767 403.982 571.335 403.982 571.335H395.487V579.256L466.916 615.644C466.821 616.818 466.879 618.059 467.11 619.368C466.594 646.343 478.131 666.495 489.554 686.447C497.023 699.494 504.444 712.456 508.413 727.185L534.656 723.267C533.891 721.31 532.683 712.489 531.03 700.428C526.862 670.016 519.873 619.007 510.067 605.512C510.032 605.465 509.998 605.418 509.962 605.371C509.95 605.319 509.935 605.266 509.919 605.214Z" fill="#1F28CF"/>
<path fill-rule="evenodd" clip-rule="evenodd" d="M401.421 637.254C394.886 635.945 388.867 634.776 383.717 633.872C350.451 628.034 340.751 610.214 346.486 571.335H407.778C417.79 574.213 469.822 596.049 496.819 607.662C514.687 615.349 509.054 643.059 498.935 650.27C498.881 650.713 498.698 651.013 498.374 651.148C460.011 667.059 427.297 665.872 406.29 665.109C397.491 664.79 390.746 664.545 386.5 665.662L379.847 644.66L401.421 637.254Z" fill="#2B44FF"/>
<path fill-rule="evenodd" clip-rule="evenodd" d="M363.043 652.783C363.004 651.612 362.017 650.678 360.853 650.797C358.471 651.041 354.744 651.543 352.965 652.411C350.234 653.744 345.438 657.212 345.438 657.212C346.983 660.382 373.213 714.198 373.213 714.198C373.213 714.198 381.634 712.837 379.886 707.766C378.139 702.695 377.067 699.299 377.067 699.299L375.953 666.926C375.934 666.363 375.454 665.927 374.892 665.962L369.808 666.282C369.808 666.282 365.583 662.86 364.233 660.09C363.377 658.334 363.118 654.992 363.043 652.783Z" fill="#E4E4E4"/>
<path fill-rule="evenodd" clip-rule="evenodd" d="M519.314 746.909C518.245 746.431 516.971 746.908 516.568 748.008C515.743 750.258 514.56 753.829 514.56 755.81C514.56 758.85 515.572 764.684 515.572 764.684C519.097 764.684 578.93 764.684 578.93 764.684C578.93 764.684 581.4 756.513 576.079 755.862C570.758 755.211 567.239 754.686 567.239 754.686L537.675 741.497C537.16 741.267 536.558 741.508 536.343 742.029L534.402 746.741C534.402 746.741 529.476 749.041 526.396 749.041C524.444 749.041 521.332 747.81 519.314 746.909Z" fill="#E4E4E4"/>
<path fill-rule="evenodd" clip-rule="evenodd" d="M490.61 582.166L454.778 555.835L446.857 575.429L482.34 590.154C492.375 601.95 497.987 606.868 499.175 604.907C500.176 603.253 499.393 601.705 498.672 600.279C498.111 599.169 497.586 598.132 497.972 597.177C498.854 594.997 505.595 595.227 511.982 595.718C518.37 596.21 516.509 593.365 514.968 591.961C508.448 588.055 500.329 584.79 490.61 582.166ZM302.697 628.562C305.989 621.879 317.199 556.744 317.199 556.744L340.674 556.836C340.674 556.836 318.932 627.072 317.199 631.369C314.948 636.952 318.772 645.063 321.365 650.563C321.766 651.414 322.138 652.202 322.453 652.909C318.855 654.52 317.127 652.573 315.305 650.52C313.247 648.201 311.069 645.748 305.943 648.134C303.963 649.056 302.089 650.146 300.258 651.211C293.934 654.89 288.124 658.27 280.22 653.389C278.967 652.616 277.594 649.703 280.912 647.426C289.177 641.755 301.088 631.829 302.697 628.562Z" fill="#B28B67"/>
<path fill-rule="evenodd" clip-rule="evenodd" d="M383.911 458.172L393.624 456.505C429.665 487.66 444.468 547.513 488.644 579.22L478.011 592.409C401.373 582.914 382.378 509.907 383.911 458.172Z" fill="#E87613"/>
<path fill-rule="evenodd" clip-rule="evenodd" d="M341.567 580.328C341.567 580.328 399.989 580.328 427.515 580.328C431.442 580.328 430.702 574.653 430.134 571.789C423.582 538.74 398.004 503.114 398.004 456.068L373.213 452.178C352.707 485.18 345.616 525.813 341.567 580.328Z" fill="#DDE3E9"/>
<path fill-rule="evenodd" clip-rule="evenodd" d="M331.902 603.934C328.04 613.218 324.252 621.319 320.683 627.541H302.25C300.267 563.375 324.543 514.001 344.86 484.23C340.349 483.907 336.277 482.018 333.703 477.371C324.642 461.009 327.914 452.001 337.598 449.04C342.923 447.411 347.931 448.523 353.926 449.853C358.832 450.942 364.398 452.177 371.339 452.178C371.342 452.178 371.344 452.178 371.346 452.178C372.019 452.178 372.631 452.223 373.187 452.309L381.413 452.779C381.413 452.779 414.814 566.058 399.837 603.934H331.902Z" fill="#FF9B21"/>
<path fill-rule="evenodd" clip-rule="evenodd" d="M331.902 603.934C336.971 591.754 342.168 577.536 347.169 562.853C349.031 579.023 352.131 595.263 357.293 603.934H331.902Z" fill="black" fill-opacity="0.1"/>
<path fill-rule="evenodd" clip-rule="evenodd" d="M700.823 373.65C693.538 378.041 686.38 380.162 683.02 379.296C674.594 377.125 673.82 346.302 680.339 334.151C686.858 321.999 720.372 316.703 722.061 340.779C722.647 349.134 719.139 356.592 713.955 362.676L723.25 406H696.25L700.823 373.65Z" fill="#B28B67"/>
<path fill-rule="evenodd" clip-rule="evenodd" d="M686.423 326.138C687.042 325.769 688.335 324.99 688.991 324.708C689.146 324.64 690.232 323.865 690.261 323.875C691.084 324.153 693.465 325.177 693.669 326.062C693.701 326.129 693.732 326.192 693.762 326.247C694.1 326.86 694.409 327.489 694.705 328.125C695.353 329.522 695.912 330.982 696.447 332.43C697.487 335.25 698.391 338.137 699.223 341.03C700.069 343.975 700.787 346.954 701.591 349.911C702.748 354.166 704.229 358.317 705.378 362.57C706.112 365.286 706.52 368.034 706.327 370.829C706.326 370.863 706.324 370.896 706.321 370.93C706.32 370.944 706.319 370.958 706.317 370.972C706.285 371.401 706.238 371.832 706.176 372.264C706.121 372.634 706.066 373.004 706.008 373.375C704.959 371.282 704.157 368.976 703.307 366.787C703.224 366.573 703.144 366.357 703.067 366.14C702.793 365.696 702.513 365.256 702.23 364.817C700.447 362.048 698.658 359.29 696.948 356.471C693.873 351.401 690.827 346.224 687.181 341.569C686.105 340.194 685.003 338.841 683.94 337.455C683.335 336.666 682.746 335.864 682.176 335.048C681.769 334.464 679.997 332.43 680.639 331.208C680.967 330.582 684.819 327.096 686.423 326.138Z" fill="#2C2C2C"/>
<path fill-rule="evenodd" clip-rule="evenodd" d="M688.796 324.81C688.194 325.012 688.487 323.761 689.069 323.32C691.768 321.28 702.086 320.54 711.064 322.403C717.079 323.652 724.075 326.76 728.879 330.755C733.21 334.357 736.188 340.13 737.722 345.709C739.332 351.566 739.575 357.673 738.678 363.679C738.481 364.998 738.058 366.256 737.822 367.547C737.556 369.001 737.42 370.401 736.946 371.816C736.656 372.683 736.163 373.532 735.916 374.403C735.633 375.397 735.806 376.316 736.012 377.328C736.347 378.975 736.764 380.62 737.355 382.194C738.244 384.557 739.322 386.771 739.998 389.223C740.897 392.486 744.659 403.106 741.91 406H689.576C690.894 402.405 694.85 398.175 695.65 394.327C696.122 392.06 696.346 387.11 696.396 386.93C697.575 378.8 699.878 374.918 701.32 373.509C702.762 372.1 704.683 371.667 704.782 370.445C705.191 365.39 703.181 360.547 701.707 355.83C699.951 350.207 698.664 344.446 696.853 338.842C696.051 336.361 691.919 323.761 688.796 324.81Z" fill="#8991DC"/>
<path fill-rule="evenodd" clip-rule="evenodd" d="M709.118 348.785C709.542 340.229 709.118 336.887 707.144 330.625H708.361C710.285 333.11 711.894 340.711 710.086 348.785H709.118ZM732.966 348.382L732.966 348.382C733.178 347.862 733.395 347.33 733.62 346.785L734.394 347.157C731.953 356.084 728.984 362.976 718.789 368.754L717.996 368.199C727.638 361.419 729.705 356.36 732.966 348.382ZM718.51 337.704C718.408 338.478 718.31 339.232 718.215 339.969C716.749 351.279 715.82 358.452 707.65 371.46L708.576 371.743C717.531 359.679 718.951 349.833 719.374 337.773L718.51 337.704ZM727.33 374.365L728.122 375.328C724.154 376.159 721.457 379.077 718.364 382.422C715.092 385.961 711.378 389.979 705.25 392.508L704.112 391.818C710.801 388.341 713.913 384.884 716.63 381.866C719.442 378.742 721.832 376.088 727.33 374.365Z" fill="black" fill-opacity="0.2"/>
<path fill-rule="evenodd" clip-rule="evenodd" d="M741.213 501L698.941 639.467L678.464 757.223H662.408L684.046 501H741.213Z" fill="#997659"/>
<path fill-rule="evenodd" clip-rule="evenodd" d="M756.336 501C753.465 577.026 756.844 616.241 757.486 623.148C758.129 630.055 766.928 674.842 787.76 759.542L770.651 753.655C737.729 675.973 726.51 635.6 722.734 625.399C718.958 615.199 708.929 573.732 692.648 501H756.336Z" fill="#B28B67"/>
<path fill-rule="evenodd" clip-rule="evenodd" d="M784.761 752.204C785.831 751.725 787.106 752.203 787.509 753.303C788.334 755.556 789.517 759.132 789.517 761.115C789.517 764.159 788.504 770 788.504 770C784.979 770 725.146 770 725.146 770C725.146 770 722.677 761.819 727.998 761.167C733.319 760.515 736.838 759.989 736.838 759.989L766.401 746.784C766.916 746.554 767.519 746.795 767.734 747.317L769.675 752.035C769.675 752.035 774.601 754.338 777.681 754.338C779.632 754.338 782.744 753.106 784.761 752.204Z" fill="#E4E4E4"/>
<path fill-rule="evenodd" clip-rule="evenodd" d="M679.168 752.204C680.238 751.725 681.513 752.203 681.916 753.303C682.74 755.556 683.923 759.132 683.923 761.115C683.923 764.159 682.911 770 682.911 770C679.386 770 619.553 770 619.553 770C619.553 770 617.083 761.819 622.404 761.167C627.725 760.515 631.245 759.989 631.245 759.989L660.808 746.784C661.323 746.554 661.926 746.795 662.14 747.317L664.082 752.035C664.082 752.035 669.007 754.338 672.087 754.338C674.039 754.338 677.15 753.106 679.168 752.204Z" fill="#E4E4E4"/>
<path fill-rule="evenodd" clip-rule="evenodd" d="M746.83 501L728.857 571.547H673.959L682.144 501H746.83Z" fill="#69A1AC"/>
<path fill-rule="evenodd" clip-rule="evenodd" d="M756.94 501C765.811 527.642 760.31 571.547 760.31 571.547H704.289L688.884 501H756.94Z" fill="#89C5CC"/>
<path fill-rule="evenodd" clip-rule="evenodd" d="M818.067 536.484C813.873 530.331 785.604 447.535 785.604 447.535L761.222 451.055C761.222 451.055 801.759 537.272 804.075 541.282C807.084 546.491 804.419 555.048 802.612 560.851C802.333 561.748 802.074 562.58 801.86 563.323C805.652 564.415 807.095 562.248 808.616 559.963C810.335 557.383 812.153 554.652 817.569 556.299C819.661 556.935 821.671 557.752 823.635 558.55C830.418 561.308 836.65 563.841 843.81 557.912C844.945 556.972 845.902 553.899 842.295 552.109C833.31 547.651 820.117 539.491 818.067 536.484ZM607.951 532.205L635.19 497.038L648.217 513.669L618.114 537.594C611.704 551.69 607.657 557.96 605.973 556.404C604.553 555.092 604.88 553.39 605.181 551.822C605.416 550.601 605.635 549.46 605 548.65C603.551 546.8 597.124 548.879 591.11 551.113C585.096 553.347 586.104 550.102 587.2 548.329C592.401 542.78 599.318 537.405 607.951 532.205Z" fill="#B28B67"/>
<path fill-rule="evenodd" clip-rule="evenodd" d="M701.56 388.904L691.695 388.608C684.045 444.289 611.204 491.748 609.231 512.438C608.507 520.026 614.321 522.993 611.902 525.613L625.709 533.003C627.482 530.235 632.642 534.117 641.647 529.629C650.653 525.141 710.471 452.309 701.56 388.904Z" fill="#DB2721"/>
<path fill-rule="evenodd" clip-rule="evenodd" d="M717.611 375.212C719.772 374.753 721.896 376.133 722.356 378.294L723.83 385.225C743.917 396.604 794.7 431.904 817.296 507.729C819.67 515.694 818.058 520.366 816.771 524.098C815.89 526.652 815.16 528.766 815.962 531.194L800.209 538.012C799.951 536.172 797.689 535.063 794.77 533.632C790.527 531.551 784.896 528.79 782.019 522.112C779.292 515.782 775.497 507.931 771.06 499.227C772.464 511.383 771.729 522.847 768.012 532.779C758.74 557.557 682.91 542.469 672.058 520.046C666.267 508.08 670.506 496.755 676.113 481.778C683.23 462.765 692.55 437.867 686.356 398.3L683.841 386.475C683.381 384.315 684.76 382.191 686.921 381.732L717.611 375.212Z" fill="#FF4133"/>
</svg>
