<svg width="534" height="493" viewBox="0 0 534 493" fill="none" xmlns="http://www.w3.org/2000/svg">
<rect x="70" width="396" height="346" rx="8" fill="#F2F2F2"/>
<path d="M70 8C70 3.58172 73.5817 0 78 0H458C462.418 0 466 3.58172 466 8V27H70V8Z" fill="#C5CFD6"/>
<path fill-rule="evenodd" clip-rule="evenodd" d="M83 18C85.2091 18 87 16.2091 87 14C87 11.7909 85.2091 10 83 10C80.7909 10 79 11.7909 79 14C79 16.2091 80.7909 18 83 18Z" fill="#F2F2F2"/>
<path fill-rule="evenodd" clip-rule="evenodd" d="M95 18C97.2091 18 99 16.2091 99 14C99 11.7909 97.2091 10 95 10C92.7909 10 91 11.7909 91 14C91 16.2091 92.7909 18 95 18Z" fill="#F2F2F2"/>
<path fill-rule="evenodd" clip-rule="evenodd" d="M107 18C109.209 18 111 16.2091 111 14C111 11.7909 109.209 10 107 10C104.791 10 103 11.7909 103 14C103 16.2091 104.791 18 107 18Z" fill="#F2F2F2"/>
<rect x="380" y="132" width="70" height="194" rx="8" fill="white"/>
<rect x="398" y="150" width="34" height="26" rx="4" fill="#DDE3E9"/>
<rect x="398" y="184" width="34" height="25" rx="4" fill="#AFB9C5"/>
<rect x="398" y="217" width="34" height="25" rx="4" fill="#DDE3E9"/>
<rect x="398" y="283" width="34" height="25" rx="4" fill="#DDE3E9"/>
<rect x="398" y="250" width="34" height="25" rx="4" fill="#C5CFD6"/>
<rect x="380" y="43" width="70" height="81" rx="8" fill="white"/>
<path fill-rule="evenodd" clip-rule="evenodd" d="M415 90C423.837 90 431 82.8366 431 74C431 65.1634 423.837 58 415 58C406.163 58 399 65.1634 399 74C399 82.8366 406.163 90 415 90Z" fill="#DDE3E9"/>
<rect x="390" y="94" width="50" height="6" rx="3" fill="#DDE3E9"/>
<rect x="398" y="104" width="34" height="6" rx="3" fill="#DDE3E9"/>
<rect x="86" y="43" width="286" height="47" rx="4" fill="white"/>
<rect x="95" y="57.1" width="228" height="7.05" rx="3" fill="#DDE3E9"/>
<rect x="95" y="68.85" width="153.041" height="7.05" rx="3" fill="#DDE3E9"/>
<path fill-rule="evenodd" clip-rule="evenodd" d="M341.435 73.5C345.301 73.5 348.435 70.366 348.435 66.5C348.435 62.634 345.301 59.5 341.435 59.5C337.569 59.5 334.435 62.634 334.435 66.5C334.435 70.366 337.569 73.5 341.435 73.5Z" fill="#DDE3E9"/>
<path fill-rule="evenodd" clip-rule="evenodd" d="M341.435 69.5C343.092 69.5 344.435 68.1569 344.435 66.5C344.435 64.8431 343.092 63.5 341.435 63.5C339.778 63.5 338.435 64.8431 338.435 66.5C338.435 68.1569 339.778 69.5 341.435 69.5Z" fill="#F2F2F2"/>
<rect x="86" y="98" width="286" height="39" rx="4" fill="white"/>
<rect x="95" y="109.7" width="228" height="5.85" rx="2.925" fill="#DDE3E9"/>
<rect x="95" y="119.45" width="153.041" height="5.85" rx="2.925" fill="#DDE3E9"/>
<path fill-rule="evenodd" clip-rule="evenodd" d="M341.435 124.5C345.301 124.5 348.435 121.366 348.435 117.5C348.435 113.634 345.301 110.5 341.435 110.5C337.569 110.5 334.435 113.634 334.435 117.5C334.435 121.366 337.569 124.5 341.435 124.5Z" fill="#DDE3E9"/>
<path fill-rule="evenodd" clip-rule="evenodd" d="M341.435 120.5C343.092 120.5 344.435 119.157 344.435 117.5C344.435 115.843 343.092 114.5 341.435 114.5C339.778 114.5 338.435 115.843 338.435 117.5C338.435 119.157 339.778 120.5 341.435 120.5Z" fill="#F2F2F2"/>
<rect x="86" y="145" width="286" height="39" rx="4" fill="white"/>
<rect x="95" y="156.7" width="228" height="5.85" rx="2.925" fill="#DDE3E9"/>
<rect x="95" y="166.45" width="153.041" height="5.85" rx="2.925" fill="#DDE3E9"/>
<path fill-rule="evenodd" clip-rule="evenodd" d="M341.435 171.5C345.301 171.5 348.435 168.366 348.435 164.5C348.435 160.634 345.301 157.5 341.435 157.5C337.569 157.5 334.435 160.634 334.435 164.5C334.435 168.366 337.569 171.5 341.435 171.5Z" fill="#DDE3E9"/>
<path fill-rule="evenodd" clip-rule="evenodd" d="M341.435 167.5C343.092 167.5 344.435 166.157 344.435 164.5C344.435 162.843 343.092 161.5 341.435 161.5C339.778 161.5 338.435 162.843 338.435 164.5C338.435 166.157 339.778 167.5 341.435 167.5Z" fill="#AFB9C5"/>
<rect x="86" y="286" width="286" height="39" rx="4" fill="white"/>
<rect x="95" y="297.7" width="228" height="5.85" rx="2.925" fill="#DDE3E9"/>
<rect x="95" y="307.45" width="153.041" height="5.85" rx="2.925" fill="#DDE3E9"/>
<path fill-rule="evenodd" clip-rule="evenodd" d="M341.435 312.5C345.301 312.5 348.435 309.366 348.435 305.5C348.435 301.634 345.301 298.5 341.435 298.5C337.569 298.5 334.435 301.634 334.435 305.5C334.435 309.366 337.569 312.5 341.435 312.5Z" fill="#DDE3E9"/>
<path fill-rule="evenodd" clip-rule="evenodd" d="M341.435 308.5C343.092 308.5 344.435 307.157 344.435 305.5C344.435 303.843 343.092 302.5 341.435 302.5C339.778 302.5 338.435 303.843 338.435 305.5C338.435 307.157 339.778 308.5 341.435 308.5Z" fill="#F2F2F2"/>
<rect x="86" y="239" width="286" height="39" rx="4" fill="white"/>
<rect x="95" y="250.7" width="228" height="5.85" rx="2.925" fill="#DDE3E9"/>
<rect x="95" y="260.45" width="153.041" height="5.85" rx="2.925" fill="#DDE3E9"/>
<path fill-rule="evenodd" clip-rule="evenodd" d="M341.435 265.5C345.301 265.5 348.435 262.366 348.435 258.5C348.435 254.634 345.301 251.5 341.435 251.5C337.569 251.5 334.435 254.634 334.435 258.5C334.435 262.366 337.569 265.5 341.435 265.5Z" fill="#DDE3E9"/>
<path fill-rule="evenodd" clip-rule="evenodd" d="M341.435 261.5C343.092 261.5 344.435 260.157 344.435 258.5C344.435 256.843 343.092 255.5 341.435 255.5C339.778 255.5 338.435 256.843 338.435 258.5C338.435 260.157 339.778 261.5 341.435 261.5Z" fill="#F2F2F2"/>
<rect x="86" y="192" width="286" height="39" rx="4" fill="white"/>
<rect x="95" y="203.7" width="228" height="5.85" rx="2.925" fill="#DDE3E9"/>
<rect x="95" y="213.45" width="153.041" height="5.85" rx="2.925" fill="#DDE3E9"/>
<path fill-rule="evenodd" clip-rule="evenodd" d="M341.435 218.5C345.301 218.5 348.435 215.366 348.435 211.5C348.435 207.634 345.301 204.5 341.435 204.5C337.569 204.5 334.435 207.634 334.435 211.5C334.435 215.366 337.569 218.5 341.435 218.5Z" fill="#DDE3E9"/>
<path fill-rule="evenodd" clip-rule="evenodd" d="M341.435 214.5C343.092 214.5 344.435 213.157 344.435 211.5C344.435 209.843 343.092 208.5 341.435 208.5C339.778 208.5 338.435 209.843 338.435 211.5C338.435 213.157 339.778 214.5 341.435 214.5Z" fill="#F2F2F2"/>
<path fill-rule="evenodd" clip-rule="evenodd" d="M123.145 182.31C129.334 184.937 135.175 185.806 137.712 184.76C144.074 182.136 141.298 157.976 134.857 149.203C128.416 140.43 101.579 139.983 102.898 158.974C103.356 165.565 106.924 171.003 111.653 175.185L109.126 210.046L130.279 207.073L123.145 182.31Z" fill="#B28B67"/>
<path fill-rule="evenodd" clip-rule="evenodd" d="M125.049 140.04C122.035 139.568 117.798 139.86 116.061 140.309C116.728 137.77 116.751 135.042 116.06 132.486C115.389 130.002 113.954 128.009 112.589 125.901C111.96 124.929 111.267 123.972 110.339 123.291C109.394 122.598 108.267 122.211 107.127 122.111C105.961 122.009 104.783 122.196 103.686 122.592C103.2 122.767 102.783 123.059 102.31 123.254C101.826 123.455 101.538 123.175 101.129 122.912C100.143 122.276 98.8021 122.082 97.6712 122.104C96.4024 122.129 95.1341 122.499 94.0017 123.075C92.8995 123.636 91.8777 124.438 91.1727 125.498C90.8587 125.969 90.5874 126.494 90.4415 127.052C90.3816 127.281 90.3847 127.411 90.1795 127.52C89.9897 127.622 89.7559 127.657 89.5592 127.756C87.657 128.711 86.1658 130.489 85.5137 132.595C85.1333 133.823 85.1615 135.888 85.5514 138.152C85.9414 140.416 88.8347 146.06 91.0651 147.954C93.0559 149.644 95.7622 150.563 98.2796 150.779C96.92 152.851 96.1664 155.308 95.699 157.764C95.1914 160.433 95.0276 163.154 95.2087 165.878C95.3808 168.466 95.7441 171.178 96.6988 173.6C97.5918 175.866 99.0672 177.62 101.25 178.557C102.251 178.986 103.301 179.267 104.352 179.511C105.388 179.751 106.425 179.98 107.485 180.047C109.489 180.175 111.725 179.791 113.008 178.034C113.471 177.4 113.967 176.616 114.266 175.88C114.374 175.615 114.437 175.443 114.231 175.228C113.984 174.97 113.619 174.797 113.322 174.61C111.63 173.544 110.453 171.969 109.932 169.974C109.403 167.949 109.584 165.215 111.465 164.034C113.787 162.577 116.694 163.467 119.063 164.344C119.536 160.919 121.041 157.684 123.841 155.75C126.94 153.61 130.737 152.877 133.961 150.962C134.801 150.463 135.65 149.911 136.2 149.057C136.43 148.7 136.694 148.242 136.745 147.806C136.811 147.233 136.388 146.82 136.052 146.428C134.266 144.349 128.063 140.513 125.049 140.04Z" fill="#191847"/>
<path fill-rule="evenodd" clip-rule="evenodd" d="M116.7 279.93L182.833 390.159L232.413 483.349H243.092L160.02 279.93L116.7 279.93Z" fill="#997659"/>
<path fill-rule="evenodd" clip-rule="evenodd" d="M228.566 478.149C227.493 477.686 226.221 478.161 225.826 479.261C225.189 481.036 224.39 483.551 224.39 484.995C224.39 487.395 225.192 492 225.192 492C227.985 492 275.39 492 275.39 492C275.39 492 277.346 485.551 273.131 485.036C268.915 484.522 266.127 484.108 266.127 484.108L242.897 473.783C242.383 473.555 241.782 473.795 241.567 474.315L240.11 477.837C240.11 477.837 236.208 479.653 233.768 479.653C232.348 479.653 230.153 478.834 228.566 478.149Z" fill="#E4E4E4"/>
<path fill-rule="evenodd" clip-rule="evenodd" d="M218.643 468.426L239.238 462.215C239.238 462.215 225.703 421.876 206.061 373.431C186.418 324.986 163.87 279.93 163.87 279.93H105.703C105.703 279.93 130.772 336.924 158.856 383.503C186.939 430.081 218.643 468.426 218.643 468.426Z" fill="#DB2721"/>
<path fill-rule="evenodd" clip-rule="evenodd" d="M112.354 279.93C106.112 318.665 94.0736 368.154 92.9375 369.681C92.1801 370.699 64.9133 379.809 11.137 397.009L13.4438 406.398C77.5719 397.173 111.362 390.016 114.814 384.927C119.992 377.293 145.846 316.987 155.86 279.93H112.354Z" fill="#B28B67"/>
<path fill-rule="evenodd" clip-rule="evenodd" d="M30.0403 388.893L34.1035 404.015C82.0676 408.209 111.456 405.178 122.269 394.923C133.083 384.668 145.406 346.337 159.241 279.93H103.776C95.0103 334.308 90.11 362.639 89.0745 364.922C88.0391 367.204 68.361 375.195 30.0403 388.893Z" fill="#FF4133"/>
<path fill-rule="evenodd" clip-rule="evenodd" d="M15.1201 395.589C15.3921 394.449 14.7002 393.275 13.5438 393.078C11.68 392.761 9.06033 392.414 7.6355 392.664C5.26469 393.081 0.855574 394.668 0.855574 394.668C1.34053 397.41 9.5723 443.955 9.5723 443.955C9.5723 443.955 16.2825 444.756 16.0584 440.527C15.8343 436.299 15.7595 433.489 15.7595 433.489L21.9227 408.895C22.0598 408.347 21.7172 407.795 21.1659 407.674L17.4358 406.856C17.4358 406.856 14.9649 403.34 14.5412 400.944C14.2953 399.554 14.7202 397.265 15.1201 395.589Z" fill="#E4E4E4"/>
<path fill-rule="evenodd" clip-rule="evenodd" d="M179.267 201.703L151.024 222.706L164.02 233.207L183.396 209.792C194.654 204.929 199.678 201.823 198.469 200.473C197.449 199.335 196.096 199.57 194.849 199.786C193.878 199.955 192.972 200.112 192.339 199.6C190.893 198.432 192.63 193.392 194.484 188.679C196.337 183.966 193.752 184.717 192.332 185.557C187.863 189.583 183.508 194.965 179.267 201.703ZM213.319 220.818L200.916 230.066L203.571 243.403C203.571 243.403 211.394 235.918 218.588 232.784C227.762 228.788 231.34 226.219 235.172 219.637C237.223 216.115 238.445 209.443 235.778 207.701C234.754 207.033 231.623 209.391 228.428 211.798C225.993 213.632 223.521 215.494 221.917 216.065C219.758 216.834 219.614 213.924 219.5 211.599C219.417 209.931 219.35 208.563 218.563 209.072C214.639 209.692 213.319 220.818 213.319 220.818Z" fill="#997659"/>
<path fill-rule="evenodd" clip-rule="evenodd" d="M135.603 221.079C146.302 219.46 160.273 215.196 174.163 203.405L182.022 215.875C172.968 227.758 159.382 238.386 146.402 239.841C136.173 240.987 129.239 229.432 135.603 221.079Z" fill="#2026A2"/>
<path fill-rule="evenodd" clip-rule="evenodd" d="M119.522 316.342C109.149 316.45 99.6182 316.548 94.2245 318.417C85.1689 299.14 88.5536 285.727 91.6782 273.344C93.5614 265.881 95.35 258.792 94.2637 251.02C91.1003 228.388 104.431 190.993 107.112 190.616L107.882 190.508L129.133 187.521L131.566 187.179C134.628 201.03 141.425 215.536 148.266 230.136C149.863 233.546 151.463 236.96 153.019 240.373C171.356 241.897 208.851 222.351 208.851 222.351C208.851 222.351 221.702 241.499 222.18 250.355C200.891 265.545 181.954 273.646 165.784 276.277C167.647 285.8 167.759 295.095 164.996 303.99C161.295 315.909 138.935 316.141 119.522 316.342Z" fill="#1F28CF"/>
<path fill-rule="evenodd" clip-rule="evenodd" d="M384.416 182.073C379.117 186.213 373.701 188.564 370.979 188.21C364.155 187.322 360.584 163.267 364.534 153.126C368.485 142.985 394.292 135.607 397.933 154.292C399.196 160.777 397.158 166.953 393.672 172.216L405.135 205.236L383.935 207.839L384.416 182.073Z" fill="#B28B67"/>
<path fill-rule="evenodd" clip-rule="evenodd" d="M375.272 140.678C378.01 139.879 385.495 138.641 386.883 138.471C387.769 138.362 388.755 138.446 389.181 137.569C389.529 136.852 389.233 135.747 389.267 134.96C389.306 134.046 389.409 133.135 389.515 132.227C389.816 129.641 390.444 127.14 391.458 124.739C393.36 120.235 396.499 116.505 400.737 114.038C405.418 111.314 410.948 110.143 416.315 109.92C422.058 109.681 427.435 110.92 433.02 112.022C438.343 113.072 443.783 113.075 449.033 111.598C454.324 110.111 458.04 106.697 462.248 103.374C466.556 99.9711 471.649 97.4664 477.205 97.2162C482.391 96.9829 487.386 98.5164 491.981 100.82C496.28 102.975 499.95 105.753 502.351 110.001C504.934 114.572 505.581 119.857 502.828 124.514C498.838 131.265 490.22 133.942 482.867 134.684C478.614 135.113 474.354 134.853 470.177 133.94C464.607 132.723 459.602 130.116 454.29 128.154C451.797 127.233 449.251 126.538 446.623 126.135C444.073 125.744 441.606 125.724 439.556 127.482C437.388 129.343 435.461 131.146 432.881 132.46C430.405 133.722 427.726 134.586 424.962 134.904C419.586 135.522 414.086 134.504 408.732 134.027C404.365 133.638 399.702 133.289 395.472 134.697C393.707 135.285 391.157 136.364 390.733 138.32C401.979 138.957 407.966 151.992 406.087 162.331C405.073 167.911 395.782 175.43 391.522 173.084C388.824 171.599 390.04 169.064 390.824 167.393C392.324 164.193 392.493 160.298 388.788 158.653C385.593 157.235 382.983 161.856 382.923 161.858C382.097 161.894 374.538 158.776 368.954 153.558C364.184 154.432 363.067 151.363 363.897 148.639C364.727 145.914 371.489 141.784 375.272 140.678Z" fill="#191847"/>
<path fill-rule="evenodd" clip-rule="evenodd" d="M430.187 279.93C428.582 301.766 325.2 366.056 324.597 367.86C324.195 369.063 356.776 443.888 356.776 443.888L347.739 447.389C347.739 447.389 297.765 368.144 300.332 359.7C304.007 347.611 380.544 280.162 380.544 280.162L430.187 279.93Z" fill="#B28B67"/>
<path fill-rule="evenodd" clip-rule="evenodd" d="M354.398 432.622L339.643 437.977C308.531 402.979 296.336 374.102 298.559 359.389C300.783 344.676 378.495 279.983 378.495 279.983L431.245 279.983C429.445 330.554 333.623 368.053 332.341 370.208C331.06 372.363 343.673 393.469 354.398 432.622Z" fill="#2F3676"/>
<path fill-rule="evenodd" clip-rule="evenodd" d="M357.271 442.24C358.121 441.438 359.48 441.451 360.228 442.35C361.436 443.801 363.05 445.891 363.545 447.248C364.368 449.503 365.194 454.104 365.194 454.104C362.57 455.056 318.024 471.221 318.024 471.221C318.024 471.221 313.973 465.828 317.758 463.907C321.543 461.986 324.021 460.646 324.021 460.646L342.307 443.023C342.712 442.633 343.36 442.654 343.74 443.069L346.317 445.882C346.317 445.882 350.607 446.257 352.9 445.425C354.234 444.941 356.014 443.424 357.271 442.24Z" fill="#E4E4E4"/>
<path fill-rule="evenodd" clip-rule="evenodd" d="M418.3 279.93L464.354 390.159L509.618 483.349H498.939L382.1 279.93H418.3Z" fill="#997659"/>
<path fill-rule="evenodd" clip-rule="evenodd" d="M507.574 478.149C508.647 477.686 509.919 478.161 510.314 479.261C510.951 481.036 511.75 483.551 511.75 484.995C511.75 487.395 510.948 492 510.948 492C508.155 492 460.75 492 460.75 492C460.75 492 458.794 485.551 463.009 485.036C467.225 484.522 470.013 484.108 470.013 484.108L493.243 473.783C493.757 473.555 494.358 473.795 494.573 474.315L496.03 477.837C496.03 477.837 499.932 479.653 502.372 479.653C503.792 479.653 505.987 478.834 507.574 478.149Z" fill="#E4E4E4"/>
<path fill-rule="evenodd" clip-rule="evenodd" d="M505.53 463.99L481.801 468.426C463.453 441.533 386.669 331.263 378.25 279.93H431.077C459.191 317.038 488.041 436.652 505.53 463.99Z" fill="#5C63AB"/>
<path fill-rule="evenodd" clip-rule="evenodd" d="M303.218 253.245L336.947 263.33L328.329 277.639L302.107 262.258C289.864 261.535 284.079 260.333 284.754 258.652C285.322 257.234 286.674 256.992 287.92 256.769C288.89 256.596 289.795 256.434 290.215 255.737C291.174 254.144 287.816 250.002 284.461 246.207C281.106 242.412 283.792 242.234 285.415 242.538C290.992 244.794 296.927 248.363 303.218 253.245ZM449.165 257.104L466.827 251.301C483.064 282.053 492.554 298.833 495.295 301.639C497.306 303.697 508.703 308.235 516.315 310.471C519.371 311.368 519.048 313.889 518.293 314.776C513.531 320.368 508.328 319.251 502.665 318.036C501.026 317.684 499.348 317.324 497.631 317.116C493.186 316.578 492.145 318.951 491.161 321.193C490.29 323.178 489.464 325.061 486.36 324.731C486.425 324.124 486.512 323.442 486.606 322.705C487.216 317.946 488.115 310.926 485.056 307.288C483.486 305.421 471.522 288.693 449.165 257.104Z" fill="#B28B67"/>
<path fill-rule="evenodd" clip-rule="evenodd" d="M391.235 192.042L383.436 191.673C368.774 209.807 366.731 249.298 356.272 255.776C346.383 261.901 330.948 259.044 312.508 254.892L308.578 267.606C326.753 282.947 362.74 293.374 375.574 283.323C396.093 267.253 395.354 218.947 391.235 192.042Z" fill="#DB2721"/>
<path fill-rule="evenodd" clip-rule="evenodd" d="M436.285 283.658C436.285 283.658 390.343 289.299 368.697 291.957C365.609 292.336 365.645 287.819 365.816 285.52C367.789 258.994 384.476 228.613 379.95 191.755L399.071 186.313C418.371 210.189 427.856 241.339 436.285 283.658Z" fill="#DDE3E9"/>
<path fill-rule="evenodd" clip-rule="evenodd" d="M400.106 186.186L400.329 186.158C447.355 207.655 478.896 246.056 494.949 301.361L481.122 305.866C470.399 296.119 456.628 279.701 439.807 256.615C445.867 271.022 450.833 285.952 453.573 300.309L392.733 307.779C377.312 279.55 392.61 187.106 392.61 187.106L396.81 186.591L400.106 186.186Z" fill="#FF4133"/>
<path fill-rule="evenodd" clip-rule="evenodd" d="M234.165 188.709C234.164 188.714 234.164 188.72 234.162 188.726C234.164 188.721 234.163 188.7 234.165 188.709Z" fill="#C5CFD6"/>
<path fill-rule="evenodd" clip-rule="evenodd" d="M234.162 188.717C234.163 188.718 234.162 188.721 234.163 188.723C234.161 188.718 234.166 188.701 234.162 188.717Z" fill="#C5CFD6"/>
<path fill-rule="evenodd" clip-rule="evenodd" d="M234.176 188.627C234.174 188.648 234.169 188.669 234.167 188.69C234.168 188.679 234.17 188.671 234.171 188.66C234.133 188.937 234.157 188.757 234.176 188.627Z" fill="#C5CFD6"/>
<path fill-rule="evenodd" clip-rule="evenodd" d="M234.168 188.691C234.167 188.701 234.165 188.711 234.164 188.721C234.149 188.782 234.168 188.691 234.168 188.691Z" fill="#C5CFD6"/>
<path fill-rule="evenodd" clip-rule="evenodd" d="M234.163 188.718C234.163 188.717 234.163 188.717 234.164 188.715C234.163 188.717 234.163 188.717 234.163 188.718Z" fill="#C5CFD6"/>
<path fill-rule="evenodd" clip-rule="evenodd" d="M234.16 188.726C234.157 188.739 234.176 188.674 234.16 188.726V188.726Z" fill="#C5CFD6"/>
<path fill-rule="evenodd" clip-rule="evenodd" d="M234.163 188.718L234.164 188.715C234.163 188.716 234.164 188.717 234.163 188.718Z" fill="#C5CFD6"/>
<rect x="172.392" y="148.676" width="100" height="66" rx="4" transform="rotate(-14 172.392 148.676)" fill="#2B44FF"/>
<path fill-rule="evenodd" clip-rule="evenodd" d="M213.726 158.234L197.113 210.815L253.08 196.861L213.726 158.234Z" fill="black" fill-opacity="0.2"/>
<path fill-rule="evenodd" clip-rule="evenodd" d="M245.625 163.256L229.21 202.812L278.689 190.476L245.625 163.256Z" fill="black" fill-opacity="0.2"/>
<path fill-rule="evenodd" clip-rule="evenodd" d="M256.324 161.063C261.414 159.794 264.512 154.638 263.243 149.547C261.974 144.456 256.818 141.358 251.727 142.627C246.636 143.897 243.538 149.052 244.808 154.143C246.077 159.234 251.233 162.332 256.324 161.063Z" fill="white"/>
</svg>
